<svg width="90" height="90" viewBox="0 0 90 90" fill="none" xmlns="http://www.w3.org/2000/svg">
<path fill-rule="evenodd" clip-rule="evenodd" d="M63.708 82.8938H26.292C25.4639 82.8969 24.6706 83.2273 24.0851 83.8129C23.4995 84.3984 23.1692 85.1917 23.166 86.0198V89.1458H66.834V86.0198C66.8308 85.1917 66.5005 84.3984 65.9149 83.8129C65.3294 83.2273 64.5361 82.8969 63.708 82.8938ZM37.534 80.6808H52.467L51.867 75.8668H38.136L37.536 80.6808H37.534ZM20.517 49.4118C20.2293 49.4031 19.9563 49.2828 19.7558 49.0762C19.5554 48.8696 19.4433 48.5931 19.4433 48.3053C19.4433 48.0174 19.5554 47.7409 19.7558 47.5344C19.9563 47.3278 20.2293 47.2074 20.517 47.1988H69.483C69.6311 47.1943 69.7786 47.2197 69.9167 47.2733C70.0549 47.3269 70.1808 47.4076 70.2872 47.5108C70.3935 47.614 70.4781 47.7375 70.5358 47.874C70.5935 48.0104 70.6233 48.1571 70.6233 48.3053C70.6233 48.4535 70.5935 48.6001 70.5358 48.7366C70.4781 48.873 70.3935 48.9965 70.2872 49.0997C70.1808 49.2029 70.0549 49.2837 69.9167 49.3373C69.7786 49.3909 69.6311 49.4162 69.483 49.4118H20.517ZM63.125 55.7668C62.8373 55.7581 62.5643 55.6378 62.3638 55.4312C62.1634 55.2246 62.0513 54.9481 62.0513 54.6603C62.0513 54.3724 62.1634 54.0959 62.3638 53.8894C62.5643 53.6828 62.8373 53.5624 63.125 53.5538H75.471C75.6191 53.5493 75.7666 53.5746 75.9047 53.6283C76.0429 53.6819 76.1688 53.7626 76.2752 53.8658C76.3815 53.969 76.4661 54.0925 76.5238 54.229C76.5815 54.3654 76.6113 54.5121 76.6113 54.6603C76.6113 54.8085 76.5815 54.9551 76.5238 55.0916C76.4661 55.228 76.3815 55.3515 76.2752 55.4547C76.1688 55.5579 76.0429 55.6387 75.9047 55.6923C75.7666 55.7459 75.6191 55.7712 75.471 55.7668H63.125ZM14.246 55.7668C13.9583 55.7581 13.6853 55.6378 13.4848 55.4312C13.2844 55.2246 13.1723 54.9481 13.1723 54.6603C13.1723 54.3724 13.2844 54.0959 13.4848 53.8894C13.6853 53.6828 13.9583 53.5624 14.246 53.5538H59.546C59.6941 53.5493 59.8416 53.5746 59.9797 53.6283C60.1179 53.6819 60.2438 53.7626 60.3502 53.8658C60.4565 53.969 60.5411 54.0925 60.5988 54.229C60.6565 54.3654 60.6863 54.5121 60.6863 54.6603C60.6863 54.8085 60.6565 54.9551 60.5988 55.0916C60.5411 55.228 60.4565 55.3515 60.3502 55.4547C60.2438 55.5579 60.1179 55.6387 59.9797 55.6923C59.8416 55.7459 59.6941 55.7712 59.546 55.7668H14.246ZM14.388 62.1828C14.2399 62.1872 14.0924 62.1619 13.9543 62.1083C13.8161 62.0547 13.6902 61.9739 13.5838 61.8707C13.4775 61.7675 13.3929 61.644 13.3352 61.5076C13.2775 61.3711 13.2477 61.2245 13.2477 61.0763C13.2477 60.9281 13.2775 60.7814 13.3352 60.645C13.3929 60.5085 13.4775 60.385 13.5838 60.2818C13.6902 60.1786 13.8161 60.0979 13.9543 60.0443C14.0924 59.9907 14.2399 59.9653 14.388 59.9698H75.613C75.9007 59.9784 76.1737 60.0988 76.3742 60.3054C76.5746 60.5119 76.6867 60.7884 76.6867 61.0763C76.6867 61.3641 76.5746 61.6406 76.3742 61.8472C76.1737 62.0538 75.9007 62.1741 75.613 62.1828H14.388ZM25.159 26.9038C25.2451 26.6241 25.4387 26.3901 25.6973 26.2532C25.9559 26.1163 26.2583 26.0877 26.538 26.1738C26.8177 26.2598 27.0517 26.4535 27.1886 26.7121C27.3255 26.9707 27.3541 27.2731 27.268 27.5528L23.916 38.3438C23.8735 38.4823 23.804 38.611 23.7117 38.7227C23.6194 38.8343 23.506 38.9267 23.378 38.9945C23.25 39.0624 23.1099 39.1043 22.9657 39.118C22.8215 39.1317 22.676 39.1168 22.5375 39.0743C22.2578 38.9883 22.0237 38.7948 21.8868 38.5363C21.8189 38.4083 21.777 38.2682 21.7633 38.124C21.7496 37.9798 21.7645 37.8343 21.807 37.6958L25.159 26.9038ZM31.773 28.4038C31.5518 28.2124 31.4157 27.941 31.3946 27.6493C31.3735 27.3576 31.4691 27.0695 31.6605 26.8483C31.8519 26.6271 32.1232 26.491 32.415 26.4699C32.7067 26.4488 32.9948 26.5444 33.216 26.7358L39.076 31.7898C39.1859 31.8844 39.276 31.9997 39.3411 32.1292C39.4062 32.2588 39.4451 32.3999 39.4555 32.5445C39.466 32.6891 39.4477 32.8343 39.4018 32.9718C39.3558 33.1094 39.2832 33.2364 39.188 33.3458C39.1494 33.3901 39.1076 33.4315 39.063 33.4698L33.216 38.5128C32.9947 38.7041 32.7064 38.7997 32.4146 38.7785C32.1228 38.7573 31.8514 38.6211 31.66 38.3998C31.4686 38.1785 31.373 37.8902 31.3942 37.5984C31.4154 37.3066 31.5517 37.0351 31.773 36.8438L36.665 32.6238L31.773 28.4038ZM15.858 26.7358C16.0792 26.5446 16.3673 26.449 16.6589 26.4702C16.9505 26.4914 17.2218 26.6276 17.413 26.8488C17.6042 27.07 17.6997 27.3581 17.6786 27.6497C17.6574 27.9413 17.5212 28.2126 17.3 28.4038L12.408 32.6238L17.3 36.8438C17.5213 37.0353 17.6575 37.3068 17.6786 37.5987C17.6997 37.8906 17.604 38.179 17.4125 38.4003C17.221 38.6216 16.9494 38.7578 16.6575 38.7789C16.3656 38.8 16.0773 38.7043 15.856 38.5128L10.009 33.4698C9.96464 33.4313 9.92288 33.3898 9.884 33.3458C9.78886 33.2364 9.71629 33.1092 9.67045 32.9717C9.62462 32.8341 9.60643 32.6889 9.61693 32.5443C9.62743 32.3997 9.66642 32.2586 9.73164 32.1291C9.79687 31.9996 9.88705 31.8843 9.997 31.7898L15.856 26.7358H15.858ZM45.825 28.3468C45.825 30.7898 45.836 33.2348 45.825 35.6778C45.825 36.5848 47.458 37.5348 50.099 38.3378C53.9761 39.3902 57.9822 39.8908 61.999 39.8248C66.0158 39.8908 70.0219 39.3902 73.899 38.3378C76.54 37.5378 78.173 36.5848 78.173 35.6778V35.6458V28.3458C77.0391 29.0375 75.8166 29.5724 74.539 29.9358C70.4552 31.0546 66.2339 31.5912 62 31.5298C57.7667 31.5926 53.5457 31.0573 49.462 29.9398C48.1827 29.5763 46.9598 29.0404 45.825 28.3468ZM49.463 19.4308C53.5462 20.5491 57.7669 21.0847 62 21.0218C66.2334 21.0847 70.4545 20.5491 74.538 19.4308C75.8156 19.0677 77.038 18.5332 78.172 17.8418V25.1758C78.161 26.0758 76.53 27.0268 73.898 27.8268C70.0209 28.8792 66.0148 29.3798 61.998 29.3138C57.9812 29.3798 53.9751 28.8792 50.098 27.8268C47.457 27.0268 45.824 26.0738 45.824 25.1668C45.824 25.1348 45.824 25.1028 45.824 25.0668V17.8398C46.9589 18.5327 48.1838 19.0679 49.463 19.4308ZM80.357 18.2308C80.343 24.0498 80.338 29.8678 80.386 35.6728C80.386 37.6668 78.151 39.3438 74.539 40.4428C70.4552 41.562 66.2339 42.0989 62 42.0378C57.7667 42.1006 53.5457 41.5653 49.462 40.4478C45.849 39.3478 43.615 37.6718 43.615 35.6778C43.594 32.2268 43.615 28.7698 43.615 25.3178C43.615 25.2688 43.615 25.2178 43.615 25.1698C43.615 25.1358 43.615 25.1018 43.615 25.0698V18.2358H5.533V64.9358H84.467V18.2358L80.357 18.2308ZM78.173 4.16278V4.14378C78.162 3.24378 76.531 2.29278 73.899 1.49278C70.0223 0.440406 66.0165 -0.0601859 62 0.00577863C57.9832 -0.06028 53.9771 0.440313 50.1 1.49278C47.459 2.29278 45.826 3.24578 45.826 4.15378C45.826 5.06178 47.459 6.01078 50.1 6.81378C53.9771 7.86624 57.9832 8.36684 62 8.30078C66.0168 8.36684 70.0229 7.86624 73.9 6.81378C76.532 6.01378 78.163 5.06678 78.174 4.16278H78.173ZM45.825 14.6388V14.6618C45.825 15.5688 47.458 16.5188 50.099 17.3218C53.9761 18.3742 57.9822 18.8748 61.999 18.8088C66.0158 18.8748 70.0219 18.3742 73.899 17.3218C76.531 16.5218 78.162 15.5748 78.173 14.6708V7.33378C77.039 8.02518 75.8166 8.55971 74.539 8.92278C70.4552 10.0412 66.2337 10.5768 62 10.5138C57.7666 10.5768 53.5455 10.0412 49.462 8.92278C48.1827 8.5601 46.9588 8.02484 45.824 7.33178L45.825 14.6388ZM43.612 12.7038H2.886C2.12099 12.6947 1.37981 12.9697 0.806 13.4758C0.557157 13.692 0.356742 13.9583 0.217854 14.2573C0.0789658 14.5562 0.00473049 14.8812 0 15.2108V71.1468C0.00485591 71.4764 0.0791471 71.8013 0.218027 72.1002C0.356907 72.3992 0.557255 72.6655 0.806 72.8818C1.38006 73.3874 2.12107 73.6624 2.886 73.6538H87.114C87.8792 73.6621 88.6204 73.3871 89.195 72.8818C89.4436 72.6654 89.6438 72.3991 89.7825 72.1001C89.9212 71.8012 89.9953 71.4763 90 71.1468V15.2108C89.9961 14.8816 89.9228 14.5569 89.785 14.258C89.6471 13.959 89.4478 13.6925 89.2 13.4758C88.6258 12.9698 87.8843 12.6947 87.119 12.7038H80.372L80.363 16.0228H85.574C85.8676 16.0228 86.1492 16.1394 86.3568 16.347C86.5644 16.5546 86.681 16.8362 86.681 17.1298V66.0428C86.6807 66.3362 86.564 66.6175 86.3564 66.8249C86.1488 67.0323 85.8674 67.1488 85.574 67.1488H4.426C4.13267 67.1488 3.85136 67.0322 3.64394 66.8248C3.43652 66.6174 3.32 66.3361 3.32 66.0428V17.1298C3.32 16.8364 3.43649 16.5549 3.64388 16.3474C3.85127 16.1398 4.13258 16.023 4.426 16.0228H43.62V14.8098C43.62 14.7608 43.62 14.7098 43.62 14.6618C43.616 14.0091 43.6133 13.3564 43.612 12.7038ZM52.1 23.0548C51.9555 23.0383 51.8093 23.0504 51.6695 23.0905C51.5297 23.1305 51.3992 23.1977 51.2854 23.2882C51.0556 23.471 50.9078 23.7375 50.8745 24.0293C50.8412 24.321 50.9252 24.614 51.1079 24.8439C51.2907 25.0737 51.5573 25.2215 51.849 25.2548C52.1407 25.2881 52.4338 25.2041 52.6636 25.0213C52.8934 24.8386 53.0412 24.572 53.0745 24.2803C53.1078 23.9885 53.0238 23.6955 52.8411 23.4657C52.6583 23.2359 52.3917 23.0881 52.1 23.0548ZM59.7 24.1298C59.5555 24.1122 59.4091 24.1233 59.2689 24.1624C59.1287 24.2015 58.9976 24.2678 58.8831 24.3576C58.7685 24.4473 58.6728 24.5587 58.6013 24.6855C58.5298 24.8122 58.484 24.9518 58.4665 25.0963C58.449 25.2407 58.4601 25.3872 58.4991 25.5274C58.5382 25.6676 58.6045 25.7987 58.6943 25.9132C58.784 26.0277 58.8955 26.1235 59.0222 26.195C59.149 26.2664 59.2885 26.3122 59.433 26.3298C59.7247 26.3653 60.0186 26.2835 60.2501 26.1023C60.4815 25.9212 60.6315 25.6555 60.667 25.3638C60.7025 25.072 60.6207 24.7781 60.4396 24.5467C60.2584 24.3153 59.9917 24.1653 59.7 24.1298ZM52.161 33.4758C52.45 33.5263 52.707 33.6895 52.8756 33.9296C53.0442 34.1696 53.1105 34.4668 53.06 34.7558C53.0095 35.0447 52.8462 35.3018 52.6062 35.4704C52.3661 35.639 52.069 35.7053 51.78 35.6548C51.6357 35.6311 51.4976 35.5791 51.3736 35.5017C51.2495 35.4244 51.1421 35.3232 51.0574 35.204C50.9727 35.0848 50.9125 34.9501 50.8802 34.8075C50.848 34.6649 50.8443 34.5174 50.8694 34.3733C50.8945 34.2293 50.9479 34.0917 51.0266 33.9685C51.1052 33.8452 51.2075 33.7388 51.3275 33.6553C51.4475 33.5719 51.5829 33.513 51.7258 33.4822C51.8687 33.4514 52.0173 33.4492 52.161 33.4758ZM59.7 34.5448C59.9917 34.5803 60.2574 34.7303 60.4386 34.9617C60.6197 35.1931 60.7015 35.487 60.666 35.7788C60.6305 36.0705 60.4805 36.3362 60.2491 36.5173C60.0176 36.6985 59.7237 36.7803 59.432 36.7448C59.2875 36.7272 59.148 36.6814 59.0212 36.61C58.8945 36.5385 58.783 36.4427 58.6933 36.3282C58.6035 36.2137 58.5372 36.0826 58.4981 35.9424C58.4591 35.8022 58.448 35.6557 58.4655 35.5113C58.483 35.3668 58.5288 35.2272 58.6003 35.1005C58.6718 34.9737 58.7675 34.8623 58.8821 34.7726C58.9966 34.6828 59.1277 34.6165 59.2679 34.5774C59.4081 34.5383 59.5555 34.5272 59.7 34.5448ZM52.1 12.8168C52.2445 12.8333 52.3842 12.878 52.5114 12.9485C52.6385 13.019 52.7506 13.1139 52.8411 13.2277C52.9316 13.3415 52.9987 13.472 53.0388 13.6118C53.0788 13.7515 53.091 13.8978 53.0745 14.0423C53.058 14.1867 53.0132 14.3265 52.9427 14.4537C52.8722 14.5808 52.7774 14.6928 52.6636 14.7833C52.5498 14.8738 52.4193 14.941 52.2795 14.9811C52.1397 15.0211 51.9935 15.0333 51.849 15.0168C51.5573 14.9835 51.2907 14.8357 51.1079 14.6059C50.9252 14.376 50.8412 14.083 50.8745 13.7913C50.9078 13.4995 51.0556 13.233 51.2854 13.0502C51.5152 12.8675 51.8083 12.7835 52.1 12.8168ZM59.768 13.9048C59.9106 13.9317 60.0464 13.9864 60.1678 14.0659C60.2892 14.1453 60.3938 14.2478 60.4755 14.3677C60.5573 14.4875 60.6146 14.6223 60.6443 14.7643C60.674 14.9063 60.6754 15.0527 60.6485 15.1953C60.6216 15.3378 60.5668 15.4737 60.4874 15.5951C60.408 15.7165 60.3054 15.821 60.1856 15.9028C60.0658 15.9846 59.931 16.0419 59.789 16.0716C59.647 16.1013 59.5006 16.1027 59.358 16.0758C59.0702 16.0218 58.8157 15.8557 58.6504 15.6141C58.4851 15.3725 58.4225 15.075 58.4765 14.7873C58.5305 14.4995 58.6965 14.245 58.9382 14.0797C59.1798 13.9144 59.4772 13.8518 59.765 13.9058L59.768 13.9048ZM40.63 71.5078C40.4819 71.5122 40.3344 71.4869 40.1963 71.4333C40.0581 71.3797 39.9322 71.2989 39.8258 71.1957C39.7195 71.0925 39.6349 70.969 39.5772 70.8326C39.5195 70.6961 39.4897 70.5494 39.4897 70.4013C39.4897 70.2531 39.5195 70.1064 39.5772 69.97C39.6349 69.8335 39.7195 69.71 39.8258 69.6068C39.9322 69.5036 40.0581 69.4229 40.1963 69.3693C40.3344 69.3157 40.4819 69.2903 40.63 69.2948H49.371C49.6587 69.3034 49.9317 69.4238 50.1322 69.6304C50.3326 69.8369 50.4447 70.1134 50.4447 70.4013C50.4447 70.6891 50.3326 70.9656 50.1322 71.1722C49.9317 71.3788 49.6587 71.4991 49.371 71.5078H40.63Z" fill="black"/>
</svg>
