<svg width="592" height="430" viewBox="0 0 592 430" fill="none" xmlns="http://www.w3.org/2000/svg">
<g clip-path="url(#clip0_11_111)">
<path d="M344.839 75.804C355.934 75.804 364.929 66.8214 364.929 55.7408C364.929 44.6602 355.934 35.6776 344.839 35.6776C333.744 35.6776 324.75 44.6602 324.75 55.7408C324.75 66.8214 333.744 75.804 344.839 75.804Z" fill="#F2F2F2"/>
<path d="M500.68 373.565C530.541 350.85 544.803 312.681 535.874 276.27C535.652 275.366 535.418 274.463 535.172 273.563C529.252 251.949 514.608 231.408 493.263 224.502C475.341 218.703 455.779 223.162 437.082 220.857C400.379 216.33 371.924 186.672 351.903 155.62C331.881 124.567 316.494 89.8088 289.889 64.155C246.036 21.8692 174.5 12.765 120.129 40.2899C65.7569 67.8149 31.1227 128.881 32.5998 189.742C34.0769 250.602 70.2544 308.789 122.793 339.661C142.094 351.002 164.417 359.036 186.633 356.225C205.909 353.785 223.424 343.441 242.61 340.37C272.774 335.542 302.746 349.162 328.836 365.034C354.926 380.906 380.127 399.719 409.775 407.077C438.563 414.222 474.228 393.686 500.68 373.565Z" fill="#F2F2F2"/>
<path d="M457.777 41.5679C457.122 41.1321 456.46 40.7188 455.806 40.2981C436.884 28.2122 416.602 18.3938 395.381 11.0457L390.46 78.8379H359.266V1.14961C357.302 0.743849 355.323 0.360631 353.345 -4.57764e-05V78.8379H316.274C295.866 78.8379 276.294 70.7416 261.864 56.33C247.433 41.9185 239.327 22.3723 239.327 1.99128C237.34 2.41958 235.369 2.87787 233.398 3.36629V78.8379H203.204L198.517 14.1941C176.708 22.547 156.004 33.5314 136.865 46.903C136.534 47.1284 136.203 47.3613 135.88 47.5867C134.217 48.7514 132.577 49.9387 130.944 51.1409V309.769H219.93L218.357 288.015L209.705 168.579H383.952L375.299 288.015L373.727 309.769H461.727V44.1829C460.418 43.2962 459.101 42.4246 457.777 41.5679ZM233.398 148.854H208.275L203.633 84.759H233.398V148.854ZM353.345 148.854H311.15V147.584C311.15 146.974 311.03 146.369 310.796 145.806C310.561 145.242 310.218 144.729 309.786 144.298C309.353 143.867 308.84 143.525 308.275 143.292C307.71 143.059 307.104 142.94 306.493 142.941H288.149C287.539 142.94 286.934 143.06 286.37 143.294C285.806 143.527 285.293 143.869 284.861 144.3C284.429 144.731 284.087 145.243 283.853 145.807C283.62 146.37 283.499 146.974 283.5 147.584V148.854H239.327V84.759H353.345V148.854ZM359.266 148.854V84.759H390.031L385.389 148.854H359.266Z" fill="#3F3D56"/>
<path d="M-2.52724e-05 326.33C6.53623 334.065 13.6059 341.334 21.1574 348.084L570.843 348.835C578.394 342.085 585.464 334.816 592 327.082L-2.52724e-05 326.33Z" fill="#3F3D56"/>
<path d="M372.759 256.675V321.074C372.76 321.895 373.087 322.681 373.668 323.262C374.249 323.842 375.037 324.168 375.859 324.169H471.416C472.238 324.168 473.026 323.842 473.607 323.262C474.188 322.681 474.515 321.895 474.515 321.074V256.675C474.513 255.855 474.186 255.069 473.605 254.49C473.024 253.91 472.237 253.584 471.416 253.583H375.859C375.037 253.584 374.25 253.91 373.669 254.49C373.089 255.069 372.761 255.855 372.759 256.675Z" fill="#3F3D56"/>
<path d="M375.001 257.476V320.279C375.002 320.718 375.177 321.138 375.487 321.448C375.798 321.758 376.218 321.933 376.657 321.934H470.621C471.06 321.933 471.481 321.758 471.791 321.448C472.102 321.138 472.276 320.718 472.277 320.279V257.476C472.277 257.037 472.103 256.616 471.792 256.305C471.482 255.995 471.06 255.82 470.621 255.819H376.657C376.218 255.82 375.797 255.995 375.486 256.305C375.176 256.616 375.001 257.037 375.001 257.476Z" fill="#6C63FF"/>
<path d="M370.761 333.633C370.936 333.852 371.158 334.029 371.412 334.15C371.665 334.271 371.942 334.333 372.223 334.332H474.543C474.823 334.332 475.099 334.269 475.351 334.149C475.604 334.028 475.827 333.853 476.003 333.636C476.179 333.419 476.305 333.166 476.37 332.894C476.436 332.622 476.441 332.339 476.383 332.066L474.795 324.531C474.729 324.224 474.587 323.938 474.383 323.7C474.178 323.461 473.917 323.277 473.623 323.165C473.41 323.082 473.183 323.039 472.955 323.04H373.805C373.576 323.039 373.35 323.082 373.137 323.165C372.843 323.277 372.582 323.461 372.377 323.7C372.172 323.938 372.031 324.224 371.965 324.531L370.376 332.066C370.32 332.339 370.325 332.622 370.392 332.893C370.458 333.164 370.584 333.417 370.761 333.633Z" fill="#2F2E41"/>
<path d="M469.444 326.285H471.861C472.063 326.285 472.228 326.121 472.228 325.918V324.763C472.228 324.561 472.063 324.397 471.861 324.397H469.444C469.241 324.397 469.076 324.561 469.076 324.763V325.918C469.076 326.121 469.241 326.285 469.444 326.285Z" fill="#3F3D56"/>
<path d="M463.141 326.285H465.558C465.761 326.285 465.925 326.121 465.925 325.918V324.763C465.925 324.561 465.761 324.397 465.558 324.397H463.141C462.938 324.397 462.774 324.561 462.774 324.763V325.918C462.774 326.121 462.938 326.285 463.141 326.285Z" fill="#3F3D56"/>
<path d="M456.838 326.285H459.255C459.458 326.285 459.622 326.121 459.622 325.918V324.763C459.622 324.561 459.458 324.397 459.255 324.397H456.838C456.635 324.397 456.471 324.561 456.471 324.763V325.918C456.471 326.121 456.635 326.285 456.838 326.285Z" fill="#3F3D56"/>
<path d="M450.535 326.285H452.952C453.155 326.285 453.319 326.121 453.319 325.918V324.763C453.319 324.561 453.155 324.397 452.952 324.397H450.535C450.333 324.397 450.168 324.561 450.168 324.763V325.918C450.168 326.121 450.333 326.285 450.535 326.285Z" fill="#3F3D56"/>
<path d="M444.233 326.285H446.649C446.852 326.285 447.017 326.121 447.017 325.918V324.763C447.017 324.561 446.852 324.397 446.649 324.397H444.233C444.03 324.397 443.865 324.561 443.865 324.763V325.918C443.865 326.121 444.03 326.285 444.233 326.285Z" fill="#3F3D56"/>
<path d="M437.93 326.285H440.347C440.549 326.285 440.714 326.121 440.714 325.918V324.763C440.714 324.561 440.549 324.397 440.347 324.397H437.93C437.727 324.397 437.562 324.561 437.562 324.763V325.918C437.562 326.121 437.727 326.285 437.93 326.285Z" fill="#3F3D56"/>
<path d="M431.627 326.285H434.044C434.247 326.285 434.411 326.121 434.411 325.918V324.763C434.411 324.561 434.247 324.397 434.044 324.397H431.627C431.424 324.397 431.26 324.561 431.26 324.763V325.918C431.26 326.121 431.424 326.285 431.627 326.285Z" fill="#3F3D56"/>
<path d="M425.324 326.285H427.741C427.944 326.285 428.108 326.121 428.108 325.918V324.763C428.108 324.561 427.944 324.397 427.741 324.397H425.324C425.121 324.397 424.957 324.561 424.957 324.763V325.918C424.957 326.121 425.121 326.285 425.324 326.285Z" fill="#3F3D56"/>
<path d="M419.021 326.285H421.438C421.641 326.285 421.805 326.121 421.805 325.918V324.763C421.805 324.561 421.641 324.397 421.438 324.397H419.021C418.818 324.397 418.654 324.561 418.654 324.763V325.918C418.654 326.121 418.818 326.285 419.021 326.285Z" fill="#3F3D56"/>
<path d="M412.719 326.285H415.135C415.338 326.285 415.503 326.121 415.503 325.918V324.763C415.503 324.561 415.338 324.397 415.135 324.397H412.719C412.516 324.397 412.351 324.561 412.351 324.763V325.918C412.351 326.121 412.516 326.285 412.719 326.285Z" fill="#3F3D56"/>
<path d="M406.416 326.285H408.833C409.035 326.285 409.2 326.121 409.2 325.918V324.763C409.2 324.561 409.035 324.397 408.833 324.397H406.416C406.213 324.397 406.048 324.561 406.048 324.763V325.918C406.048 326.121 406.213 326.285 406.416 326.285Z" fill="#3F3D56"/>
<path d="M400.113 326.285H402.53C402.733 326.285 402.897 326.121 402.897 325.918V324.763C402.897 324.561 402.733 324.397 402.53 324.397H400.113C399.91 324.397 399.746 324.561 399.746 324.763V325.918C399.746 326.121 399.91 326.285 400.113 326.285Z" fill="#3F3D56"/>
<path d="M393.81 326.285H396.227C396.43 326.285 396.594 326.121 396.594 325.918V324.763C396.594 324.561 396.43 324.397 396.227 324.397H393.81C393.607 324.397 393.443 324.561 393.443 324.763V325.918C393.443 326.121 393.607 326.285 393.81 326.285Z" fill="#3F3D56"/>
<path d="M387.507 326.285H389.924C390.127 326.285 390.291 326.121 390.291 325.918V324.763C390.291 324.561 390.127 324.397 389.924 324.397H387.507C387.304 324.397 387.14 324.561 387.14 324.763V325.918C387.14 326.121 387.304 326.285 387.507 326.285Z" fill="#3F3D56"/>
<path d="M381.204 326.285H383.621C383.824 326.285 383.989 326.121 383.989 325.918V324.763C383.989 324.561 383.824 324.397 383.621 324.397H381.204C381.002 324.397 380.837 324.561 380.837 324.763V325.918C380.837 326.121 381.002 326.285 381.204 326.285Z" fill="#3F3D56"/>
<path d="M374.902 326.285H377.318C377.521 326.285 377.686 326.121 377.686 325.918V324.763C377.686 324.561 377.521 324.397 377.318 324.397H374.902C374.699 324.397 374.534 324.561 374.534 324.763V325.918C374.534 326.121 374.699 326.285 374.902 326.285Z" fill="#3F3D56"/>
<path d="M469.518 329.432H471.935C472.138 329.432 472.302 329.268 472.302 329.065V327.911C472.302 327.708 472.138 327.544 471.935 327.544H469.518C469.315 327.544 469.151 327.708 469.151 327.911V329.065C469.151 329.268 469.315 329.432 469.518 329.432Z" fill="#3F3D56"/>
<path d="M463.215 329.432H465.632C465.835 329.432 466 329.268 466 329.065V327.911C466 327.708 465.835 327.544 465.632 327.544H463.215C463.013 327.544 462.848 327.708 462.848 327.911V329.065C462.848 329.268 463.013 329.432 463.215 329.432Z" fill="#3F3D56"/>
<path d="M456.913 329.432H459.329C459.532 329.432 459.697 329.268 459.697 329.065V327.911C459.697 327.708 459.532 327.544 459.329 327.544H456.913C456.71 327.544 456.545 327.708 456.545 327.911V329.065C456.545 329.268 456.71 329.432 456.913 329.432Z" fill="#3F3D56"/>
<path d="M450.61 329.432H453.027C453.229 329.432 453.394 329.268 453.394 329.065V327.911C453.394 327.708 453.229 327.544 453.027 327.544H450.61C450.407 327.544 450.242 327.708 450.242 327.911V329.065C450.242 329.268 450.407 329.432 450.61 329.432Z" fill="#3F3D56"/>
<path d="M444.307 329.432H446.724C446.927 329.432 447.091 329.268 447.091 329.065V327.911C447.091 327.708 446.927 327.544 446.724 327.544H444.307C444.104 327.544 443.94 327.708 443.94 327.911V329.065C443.94 329.268 444.104 329.432 444.307 329.432Z" fill="#3F3D56"/>
<path d="M438.004 329.432H440.421C440.624 329.432 440.788 329.268 440.788 329.065V327.911C440.788 327.708 440.624 327.544 440.421 327.544H438.004C437.801 327.544 437.637 327.708 437.637 327.911V329.065C437.637 329.268 437.801 329.432 438.004 329.432Z" fill="#3F3D56"/>
<path d="M431.701 329.432H434.118C434.321 329.432 434.486 329.268 434.486 329.065V327.911C434.486 327.708 434.321 327.544 434.118 327.544H431.701C431.499 327.544 431.334 327.708 431.334 327.911V329.065C431.334 329.268 431.499 329.432 431.701 329.432Z" fill="#3F3D56"/>
<path d="M425.399 329.432H427.815C428.018 329.432 428.183 329.268 428.183 329.065V327.911C428.183 327.708 428.018 327.544 427.815 327.544H425.399C425.196 327.544 425.031 327.708 425.031 327.911V329.065C425.031 329.268 425.196 329.432 425.399 329.432Z" fill="#3F3D56"/>
<path d="M419.096 329.432H421.513C421.715 329.432 421.88 329.268 421.88 329.065V327.911C421.88 327.708 421.715 327.544 421.513 327.544H419.096C418.893 327.544 418.728 327.708 418.728 327.911V329.065C418.728 329.268 418.893 329.432 419.096 329.432Z" fill="#3F3D56"/>
<path d="M412.793 329.432H415.21C415.413 329.432 415.577 329.268 415.577 329.065V327.911C415.577 327.708 415.413 327.544 415.21 327.544H412.793C412.59 327.544 412.426 327.708 412.426 327.911V329.065C412.426 329.268 412.59 329.432 412.793 329.432Z" fill="#3F3D56"/>
<path d="M406.49 329.432H408.907C409.11 329.432 409.274 329.268 409.274 329.065V327.911C409.274 327.708 409.11 327.544 408.907 327.544H406.49C406.287 327.544 406.123 327.708 406.123 327.911V329.065C406.123 329.268 406.287 329.432 406.49 329.432Z" fill="#3F3D56"/>
<path d="M400.187 329.432H402.604C402.807 329.432 402.971 329.268 402.971 329.065V327.911C402.971 327.708 402.807 327.544 402.604 327.544H400.187C399.985 327.544 399.82 327.708 399.82 327.911V329.065C399.82 329.268 399.985 329.432 400.187 329.432Z" fill="#3F3D56"/>
<path d="M393.885 329.432H396.301C396.504 329.432 396.669 329.268 396.669 329.065V327.911C396.669 327.708 396.504 327.544 396.301 327.544H393.885C393.682 327.544 393.517 327.708 393.517 327.911V329.065C393.517 329.268 393.682 329.432 393.885 329.432Z" fill="#3F3D56"/>
<path d="M387.582 329.432H389.999C390.201 329.432 390.366 329.268 390.366 329.065V327.911C390.366 327.708 390.201 327.544 389.999 327.544H387.582C387.379 327.544 387.214 327.708 387.214 327.911V329.065C387.214 329.268 387.379 329.432 387.582 329.432Z" fill="#3F3D56"/>
<path d="M381.279 329.432H383.696C383.899 329.432 384.063 329.268 384.063 329.065V327.911C384.063 327.708 383.899 327.544 383.696 327.544H381.279C381.076 327.544 380.912 327.708 380.912 327.911V329.065C380.912 329.268 381.076 329.432 381.279 329.432Z" fill="#3F3D56"/>
<path d="M374.976 329.432H377.393C377.596 329.432 377.76 329.268 377.76 329.065V327.911C377.76 327.708 377.596 327.544 377.393 327.544H374.976C374.773 327.544 374.609 327.708 374.609 327.911V329.065C374.609 329.268 374.773 329.432 374.976 329.432Z" fill="#3F3D56"/>
<path d="M417.205 333.209H441.682C441.884 333.209 442.049 333.045 442.049 332.842V331.687C442.049 331.485 441.884 331.321 441.682 331.321H417.205C417.002 331.321 416.838 331.485 416.838 331.687V332.842C416.838 333.045 417.002 333.209 417.205 333.209Z" fill="#3F3D56"/>
<path d="M391.273 269.559H389.133C388.484 269.559 387.959 270.084 387.959 270.732C387.959 271.379 388.484 271.905 389.133 271.905H391.273C391.921 271.905 392.447 271.379 392.447 270.732C392.447 270.084 391.921 269.559 391.273 269.559Z" fill="white"/>
<path d="M415.743 269.559H413.603C412.955 269.559 412.429 270.084 412.429 270.732C412.429 271.379 412.955 271.905 413.603 271.905H415.743C416.392 271.905 416.918 271.379 416.918 270.732C416.918 270.084 416.392 269.559 415.743 269.559Z" fill="white"/>
<path d="M422.676 269.559H420.537C419.888 269.559 419.362 270.084 419.362 270.732C419.362 271.379 419.888 271.905 420.537 271.905H422.676C423.325 271.905 423.851 271.379 423.851 270.732C423.851 270.084 423.325 269.559 422.676 269.559Z" fill="white"/>
<path d="M409.087 269.363H395.789C395.14 269.363 394.615 269.888 394.615 270.536C394.615 271.184 395.14 271.709 395.789 271.709H409.087C409.736 271.709 410.262 271.184 410.262 270.536C410.262 269.888 409.736 269.363 409.087 269.363Z" fill="white"/>
<path d="M441.714 269.363H428.416C427.767 269.363 427.241 269.888 427.241 270.536C427.241 271.184 427.767 271.709 428.416 271.709H441.714C442.363 271.709 442.888 271.184 442.888 270.536C442.888 269.888 442.363 269.363 441.714 269.363Z" fill="white"/>
<path d="M397.798 274.853H395.659C395.01 274.853 394.484 275.379 394.484 276.026C394.484 276.674 395.01 277.199 395.659 277.199H397.798C398.447 277.199 398.973 276.674 398.973 276.026C398.973 275.379 398.447 274.853 397.798 274.853Z" fill="white"/>
<path d="M422.268 274.853H420.129C419.48 274.853 418.954 275.379 418.954 276.026C418.954 276.674 419.48 277.199 420.129 277.199H422.268C422.917 277.199 423.443 276.674 423.443 276.026C423.443 275.379 422.917 274.853 422.268 274.853Z" fill="white"/>
<path d="M429.202 274.853H427.062C426.413 274.853 425.887 275.379 425.887 276.026C425.887 276.674 426.413 277.199 427.062 277.199H429.202C429.85 277.199 430.376 276.674 430.376 276.026C430.376 275.379 429.85 274.853 429.202 274.853Z" fill="white"/>
<path d="M415.612 274.658H402.315C401.666 274.658 401.14 275.183 401.14 275.831C401.14 276.479 401.666 277.004 402.315 277.004H415.612C416.261 277.004 416.787 276.479 416.787 275.831C416.787 275.183 416.261 274.658 415.612 274.658Z" fill="white"/>
<path d="M448.239 274.658H434.941C434.293 274.658 433.767 275.183 433.767 275.831C433.767 276.479 434.293 277.004 434.941 277.004H448.239C448.888 277.004 449.414 276.479 449.414 275.831C449.414 275.183 448.888 274.658 448.239 274.658Z" fill="white"/>
<path d="M404.324 280.148H402.184C401.535 280.148 401.009 280.674 401.009 281.321C401.009 281.969 401.535 282.494 402.184 282.494H404.324C404.972 282.494 405.498 281.969 405.498 281.321C405.498 280.674 404.972 280.148 404.324 280.148Z" fill="white"/>
<path d="M428.794 280.148H426.654C426.005 280.148 425.48 280.674 425.48 281.321C425.48 281.969 426.005 282.494 426.654 282.494H428.794C429.442 282.494 429.968 281.969 429.968 281.321C429.968 280.674 429.442 280.148 428.794 280.148Z" fill="white"/>
<path d="M435.727 280.148H433.587C432.939 280.148 432.413 280.674 432.413 281.321C432.413 281.969 432.939 282.494 433.587 282.494H435.727C436.376 282.494 436.901 281.969 436.901 281.321C436.901 280.674 436.376 280.148 435.727 280.148Z" fill="white"/>
<path d="M422.138 279.953H408.84C408.191 279.953 407.665 280.478 407.665 281.126C407.665 281.774 408.191 282.299 408.84 282.299H422.138C422.786 282.299 423.312 281.774 423.312 281.126C423.312 280.478 422.786 279.953 422.138 279.953Z" fill="white"/>
<path d="M454.765 279.953H441.467C440.818 279.953 440.292 280.478 440.292 281.126C440.292 281.774 440.818 282.299 441.467 282.299H454.765C455.413 282.299 455.939 281.774 455.939 281.126C455.939 280.478 455.413 279.953 454.765 279.953Z" fill="white"/>
<path d="M410.849 285.443H408.709C408.061 285.443 407.535 285.968 407.535 286.616C407.535 287.264 408.061 287.789 408.709 287.789H410.849C411.498 287.789 412.023 287.264 412.023 286.616C412.023 285.968 411.498 285.443 410.849 285.443Z" fill="white"/>
<path d="M435.319 285.443H433.18C432.531 285.443 432.005 285.968 432.005 286.616C432.005 287.264 432.531 287.789 433.18 287.789H435.319C435.968 287.789 436.494 287.264 436.494 286.616C436.494 285.968 435.968 285.443 435.319 285.443Z" fill="white"/>
<path d="M442.252 285.443H440.113C439.464 285.443 438.938 285.968 438.938 286.616C438.938 287.264 439.464 287.789 440.113 287.789H442.252C442.901 287.789 443.427 287.264 443.427 286.616C443.427 285.968 442.901 285.443 442.252 285.443Z" fill="white"/>
<path d="M428.663 285.248H415.365C414.717 285.248 414.191 285.773 414.191 286.421C414.191 287.069 414.717 287.594 415.365 287.594H428.663C429.312 287.594 429.838 287.069 429.838 286.421C429.838 285.773 429.312 285.248 428.663 285.248Z" fill="white"/>
<path d="M415.743 306.498H413.603C412.955 306.498 412.429 307.023 412.429 307.671C412.429 308.319 412.955 308.844 413.603 308.844H415.743C416.392 308.844 416.918 308.319 416.918 307.671C416.918 307.023 416.392 306.498 415.743 306.498Z" fill="white"/>
<path d="M422.676 306.498H420.537C419.888 306.498 419.362 307.023 419.362 307.671C419.362 308.319 419.888 308.844 420.537 308.844H422.676C423.325 308.844 423.851 308.319 423.851 307.671C423.851 307.023 423.325 306.498 422.676 306.498Z" fill="white"/>
<path d="M441.714 306.694H428.416C427.767 306.694 427.241 307.219 427.241 307.867C427.241 308.515 427.767 309.04 428.416 309.04H441.714C442.363 309.04 442.888 308.515 442.888 307.867C442.888 307.219 442.363 306.694 441.714 306.694Z" fill="white"/>
<path d="M391.273 306.498H389.133C388.484 306.498 387.959 307.023 387.959 307.671C387.959 308.319 388.484 308.844 389.133 308.844H391.273C391.921 308.844 392.447 308.319 392.447 307.671C392.447 307.023 391.921 306.498 391.273 306.498Z" fill="white"/>
<path d="M409.087 306.694H395.789C395.14 306.694 394.615 307.219 394.615 307.867C394.615 308.515 395.14 309.04 395.789 309.04H409.087C409.736 309.04 410.262 308.515 410.262 307.867C410.262 307.219 409.736 306.694 409.087 306.694Z" fill="white"/>
<path d="M397.798 301.203H395.659C395.01 301.203 394.484 301.728 394.484 302.376C394.484 303.024 395.01 303.549 395.659 303.549H397.798C398.447 303.549 398.973 303.024 398.973 302.376C398.973 301.728 398.447 301.203 397.798 301.203Z" fill="white"/>
<path d="M422.268 301.203H420.129C419.48 301.203 418.954 301.728 418.954 302.376C418.954 303.024 419.48 303.549 420.129 303.549H422.268C422.917 303.549 423.443 303.024 423.443 302.376C423.443 301.728 422.917 301.203 422.268 301.203Z" fill="white"/>
<path d="M429.202 301.203H427.062C426.413 301.203 425.887 301.728 425.887 302.376C425.887 303.024 426.413 303.549 427.062 303.549H429.202C429.85 303.549 430.376 303.024 430.376 302.376C430.376 301.728 429.85 301.203 429.202 301.203Z" fill="white"/>
<path d="M415.612 301.399H402.315C401.666 301.399 401.14 301.924 401.14 302.572C401.14 303.22 401.666 303.745 402.315 303.745H415.612C416.261 303.745 416.787 303.22 416.787 302.572C416.787 301.924 416.261 301.399 415.612 301.399Z" fill="white"/>
<path d="M404.324 295.908H402.184C401.535 295.908 401.009 296.433 401.009 297.081C401.009 297.729 401.535 298.254 402.184 298.254H404.324C404.972 298.254 405.498 297.729 405.498 297.081C405.498 296.433 404.972 295.908 404.324 295.908Z" fill="white"/>
<path d="M428.794 295.908H426.654C426.005 295.908 425.48 296.433 425.48 297.081C425.48 297.729 426.005 298.254 426.654 298.254H428.794C429.442 298.254 429.968 297.729 429.968 297.081C429.968 296.433 429.442 295.908 428.794 295.908Z" fill="white"/>
<path d="M435.727 295.908H433.587C432.939 295.908 432.413 296.433 432.413 297.081C432.413 297.729 432.939 298.254 433.587 298.254H435.727C436.376 298.254 436.901 297.729 436.901 297.081C436.901 296.433 436.376 295.908 435.727 295.908Z" fill="white"/>
<path d="M422.138 296.104H408.84C408.191 296.104 407.665 296.629 407.665 297.277C407.665 297.925 408.191 298.45 408.84 298.45H422.138C422.786 298.45 423.312 297.925 423.312 297.277C423.312 296.629 422.786 296.104 422.138 296.104Z" fill="white"/>
<path d="M410.849 290.613H408.709C408.061 290.613 407.535 291.139 407.535 291.786C407.535 292.434 408.061 292.959 408.709 292.959H410.849C411.498 292.959 412.023 292.434 412.023 291.786C412.023 291.139 411.498 290.613 410.849 290.613Z" fill="white"/>
<path d="M435.319 290.613H433.18C432.531 290.613 432.005 291.139 432.005 291.786C432.005 292.434 432.531 292.959 433.18 292.959H435.319C435.968 292.959 436.494 292.434 436.494 291.786C436.494 291.139 435.968 290.613 435.319 290.613Z" fill="white"/>
<path d="M442.252 290.613H440.113C439.464 290.613 438.938 291.139 438.938 291.786C438.938 292.434 439.464 292.959 440.113 292.959H442.252C442.901 292.959 443.427 292.434 443.427 291.786C443.427 291.139 442.901 290.613 442.252 290.613Z" fill="white"/>
<path d="M428.663 290.809H415.365C414.717 290.809 414.191 291.334 414.191 291.982C414.191 292.63 414.717 293.155 415.365 293.155H428.663C429.312 293.155 429.838 292.63 429.838 291.982C429.838 291.334 429.312 290.809 428.663 290.809Z" fill="white"/>
<path d="M379.898 368.553L369.853 352.697L401.38 327.597L414.393 313.2C416.084 311.329 418.237 309.934 420.636 309.155C423.035 308.376 425.598 308.239 428.067 308.758C430.536 309.277 432.825 310.435 434.706 312.114C436.586 313.794 437.993 315.938 438.784 318.33C439.957 321.876 439.705 325.738 438.081 329.101C436.457 332.465 433.588 335.066 430.079 336.357L409.502 343.928L379.898 368.553Z" fill="#FFB6B6"/>
<path d="M144.227 253.586V330.651H198.286V253.586C198.287 253.032 198.11 252.492 197.781 252.046C197.452 251.599 196.988 251.27 196.458 251.107C196.208 251.024 195.946 250.984 195.683 250.986H146.838C146.495 250.986 146.156 251.053 145.839 251.183C145.523 251.313 145.235 251.505 144.993 251.746C144.75 251.987 144.558 252.274 144.426 252.59C144.295 252.906 144.227 253.244 144.227 253.586ZM165.324 280.066C165.338 278.547 165.952 277.094 167.033 276.025C168.114 274.956 169.573 274.356 171.095 274.356C172.616 274.356 174.076 274.956 175.157 276.025C176.237 277.094 176.852 278.547 176.866 280.066V289.008C176.858 290.531 176.246 291.99 175.165 293.064C174.084 294.139 172.62 294.742 171.095 294.742C169.569 294.742 168.106 294.139 167.025 293.064C165.943 291.99 165.332 290.531 165.324 289.008V280.066Z" fill="#2F2E41"/>
<path d="M144.061 328.186V335.618C144.062 336.003 144.216 336.372 144.487 336.645C144.759 336.917 145.128 337.072 145.513 337.076H197C197.386 337.074 197.755 336.919 198.027 336.646C198.299 336.373 198.452 336.003 198.452 335.618V328.186H144.061Z" fill="#3F3D56"/>
<path d="M59.1834 137.479V278.187C59.1849 279.981 59.8987 281.7 61.1683 282.968C62.4379 284.236 64.1595 284.949 65.955 284.95H274.745C276.54 284.949 278.262 284.236 279.531 282.968C280.801 281.7 281.515 279.981 281.516 278.187V137.479C281.512 135.687 280.797 133.97 279.528 132.704C278.259 131.438 276.539 130.726 274.745 130.723H65.955C64.1611 130.726 62.4411 131.438 61.1719 132.704C59.9027 133.97 59.1877 135.687 59.1834 137.479Z" fill="#3F3D56"/>
<path d="M64.0815 139.229V276.452C64.0832 277.41 64.465 278.328 65.1433 279.006C65.8217 279.683 66.7412 280.064 67.7006 280.066H273.007C273.966 280.064 274.886 279.683 275.564 279.006C276.242 278.328 276.624 277.41 276.626 276.452V139.229C276.626 138.27 276.245 137.35 275.566 136.671C274.888 135.992 273.967 135.61 273.007 135.607H67.7006C66.7401 135.61 65.8196 135.992 65.1412 136.671C64.4627 137.35 64.0816 138.27 64.0815 139.229Z" fill="white"/>
<path d="M102.183 336.572C102.392 336.834 102.657 337.045 102.96 337.189C103.262 337.334 103.593 337.408 103.928 337.406H226.072C226.406 337.406 226.736 337.331 227.038 337.187C227.339 337.044 227.605 336.835 227.815 336.575C228.026 336.316 228.176 336.014 228.254 335.689C228.333 335.365 228.338 335.028 228.269 334.701L226.373 325.707C226.295 325.34 226.126 324.999 225.881 324.714C225.637 324.429 225.325 324.21 224.974 324.076C224.72 323.977 224.449 323.926 224.176 323.926H105.817C105.544 323.926 105.273 323.977 105.019 324.076C104.668 324.21 104.357 324.429 104.112 324.714C103.868 324.998 103.699 325.34 103.62 325.707L101.724 334.701C101.656 335.027 101.663 335.365 101.742 335.688C101.821 336.012 101.972 336.314 102.183 336.572Z" fill="#2F2E41"/>
<path d="M266.344 154.511H74.2397C74.04 154.506 73.85 154.424 73.7104 154.281C73.5707 154.139 73.4926 153.947 73.4926 153.748C73.4926 153.548 73.5707 153.357 73.7104 153.214C73.85 153.071 74.04 152.989 74.2397 152.985H266.344C266.544 152.989 266.734 153.071 266.873 153.214C267.013 153.357 267.091 153.548 267.091 153.748C267.091 153.947 267.013 154.139 266.873 154.281C266.734 154.424 266.544 154.506 266.344 154.511Z" fill="#3F3D56"/>
<path d="M87.3165 149.089C89.7891 149.089 91.7936 147.043 91.7936 144.518C91.7936 141.994 89.7891 139.947 87.3165 139.947C84.8439 139.947 82.8394 141.994 82.8394 144.518C82.8394 147.043 84.8439 149.089 87.3165 149.089Z" fill="#3F3D56"/>
<path d="M102.783 149.089C105.255 149.089 107.26 147.043 107.26 144.518C107.26 141.994 105.255 139.947 102.783 139.947C100.31 139.947 98.3057 141.994 98.3057 144.518C98.3057 147.043 100.31 149.089 102.783 149.089Z" fill="#3F3D56"/>
<path d="M118.249 149.089C120.722 149.089 122.726 147.043 122.726 144.518C122.726 141.994 120.722 139.947 118.249 139.947C115.776 139.947 113.772 141.994 113.772 144.518C113.772 147.043 115.776 149.089 118.249 149.089Z" fill="#3F3D56"/>
<path d="M257.031 141.078H246.046C245.829 141.083 245.622 141.173 245.47 141.328C245.318 141.483 245.233 141.691 245.233 141.908C245.233 142.125 245.318 142.333 245.47 142.489C245.622 142.644 245.829 142.733 246.046 142.738H257.031C257.249 142.735 257.458 142.647 257.611 142.491C257.764 142.336 257.85 142.126 257.85 141.908C257.85 141.69 257.764 141.48 257.611 141.325C257.458 141.17 257.249 141.081 257.031 141.078Z" fill="#3F3D56"/>
<path d="M257.031 144.196H246.046C245.828 144.201 245.622 144.291 245.47 144.446C245.318 144.601 245.232 144.809 245.232 145.026C245.232 145.244 245.318 145.452 245.47 145.607C245.622 145.762 245.828 145.852 246.046 145.857H257.031C257.249 145.854 257.458 145.766 257.612 145.61C257.766 145.455 257.852 145.245 257.852 145.026C257.852 144.808 257.766 144.598 257.612 144.443C257.458 144.287 257.249 144.199 257.031 144.196Z" fill="#3F3D56"/>
<path d="M257.031 147.314H246.046C245.829 147.32 245.622 147.409 245.47 147.564C245.318 147.72 245.233 147.928 245.233 148.145C245.233 148.362 245.318 148.57 245.47 148.725C245.622 148.88 245.829 148.97 246.046 148.975H257.031C257.249 148.972 257.458 148.883 257.611 148.728C257.764 148.572 257.85 148.363 257.85 148.145C257.85 147.927 257.764 147.717 257.611 147.562C257.458 147.406 257.249 147.318 257.031 147.314Z" fill="#3F3D56"/>
<path d="M521.858 331.448C522.19 332.412 522.819 333.246 523.655 333.83C524.49 334.415 525.49 334.72 526.511 334.702L546.443 334.19C547.471 334.17 548.464 333.818 549.276 333.187C550.087 332.557 550.672 331.681 550.943 330.69L553.764 300.569C554.764 301.021 555.854 301.245 556.952 301.223C557.906 301.199 558.847 300.988 559.719 300.601C560.592 300.214 561.379 299.659 562.037 298.968C562.695 298.278 563.21 297.464 563.553 296.574C563.896 295.685 564.061 294.736 564.037 293.783C564.013 292.83 563.801 291.891 563.414 291.02C563.026 290.149 562.471 289.362 561.779 288.705C561.087 288.048 560.273 287.534 559.382 287.191C558.491 286.848 557.542 286.684 556.587 286.708C556.148 286.707 555.71 286.752 555.281 286.844C554.814 286.339 554.247 285.938 553.615 285.666C552.983 285.394 552.302 285.257 551.614 285.264L520.953 286.054C520.699 286.064 520.446 286.095 520.197 286.148C519.525 286.273 518.887 286.541 518.327 286.933C517.767 287.325 517.297 287.832 516.95 288.42C516.602 289.009 516.385 289.665 516.313 290.344C516.24 291.023 516.315 291.71 516.53 292.358L521.858 331.448ZM554.342 298.523L556.349 291.345C556.577 290.516 556.583 289.641 556.364 288.81C556.462 288.809 556.548 288.763 556.645 288.763C558.021 288.735 559.353 289.252 560.347 290.203C561.342 291.153 561.918 292.459 561.951 293.833C561.983 295.207 561.468 296.538 560.519 297.534C559.57 298.53 558.265 299.109 556.889 299.145C555.999 299.173 555.118 298.958 554.342 298.523Z" fill="#2F2E41"/>
<path d="M520.197 286.148C520.85 289.878 528.194 292.5 537.025 292.045C545.145 291.671 551.785 288.823 553.002 285.448C552.551 285.315 552.083 285.253 551.614 285.264L520.953 286.054C520.699 286.064 520.446 286.095 520.197 286.148Z" fill="#3F3D56"/>
<path d="M538.643 314.896C538.684 314.885 538.722 314.868 538.757 314.846L543.086 312.016C543.138 311.982 543.181 311.935 543.211 311.881C543.24 311.826 543.256 311.764 543.256 311.702C543.256 311.64 543.241 311.578 543.211 311.523C543.181 311.468 543.138 311.422 543.086 311.388L538.587 308.445C538.545 308.417 538.499 308.399 538.451 308.389C538.402 308.38 538.352 308.38 538.303 308.39C538.255 308.4 538.209 308.419 538.168 308.447C538.127 308.475 538.092 308.511 538.065 308.552C538.038 308.593 538.019 308.64 538.01 308.688C538.001 308.737 538.001 308.787 538.011 308.835C538.021 308.884 538.041 308.929 538.069 308.97C538.097 309.011 538.133 309.046 538.174 309.073L542.193 311.701L538.345 314.217C538.271 314.266 538.216 314.339 538.191 314.424C538.165 314.51 538.171 314.601 538.207 314.682C538.242 314.764 538.306 314.83 538.386 314.869C538.466 314.908 538.557 314.917 538.643 314.896Z" fill="#6C63FF"/>
<path d="M531.807 315.21C531.879 315.192 531.945 315.152 531.995 315.097C532.045 315.041 532.077 314.971 532.087 314.897C532.097 314.823 532.085 314.748 532.052 314.68C532.019 314.613 531.966 314.558 531.901 314.52L527.911 312.236L531.768 309.375C531.808 309.346 531.841 309.309 531.866 309.266C531.892 309.224 531.908 309.177 531.916 309.128C531.923 309.08 531.92 309.03 531.908 308.982C531.896 308.934 531.875 308.889 531.845 308.85C531.816 308.81 531.779 308.777 531.737 308.751C531.694 308.726 531.647 308.709 531.599 308.702C531.55 308.695 531.5 308.698 531.452 308.71C531.404 308.722 531.359 308.743 531.32 308.772L527.002 311.975C526.952 312.012 526.912 312.061 526.885 312.118C526.859 312.174 526.847 312.237 526.85 312.299C526.854 312.361 526.873 312.421 526.906 312.475C526.939 312.528 526.985 312.572 527.039 312.603L531.527 315.172C531.612 315.221 531.712 315.234 531.807 315.21Z" fill="#6C63FF"/>
<path d="M538.213 317.375C538.249 317.366 538.284 317.351 538.316 317.332C538.358 317.306 538.395 317.272 538.424 317.233C538.453 317.193 538.474 317.148 538.486 317.1C538.498 317.052 538.5 317.002 538.492 316.953C538.485 316.904 538.468 316.858 538.442 316.815L532.306 306.74C532.254 306.655 532.17 306.594 532.073 306.571C531.976 306.548 531.874 306.564 531.789 306.615C531.704 306.667 531.643 306.751 531.619 306.847C531.595 306.944 531.611 307.046 531.663 307.131L537.799 317.207C537.841 317.275 537.904 317.328 537.978 317.359C538.053 317.389 538.135 317.395 538.213 317.375Z" fill="#6C63FF"/>
<path d="M193.245 195.988H159.996C158.64 195.988 157.54 197.086 157.54 198.441V201.685C157.54 203.039 158.64 204.138 159.996 204.138H193.245C194.601 204.138 195.701 203.039 195.701 201.685V198.441C195.701 197.086 194.601 195.988 193.245 195.988Z" fill="#6C63FF"/>
<path d="M212.626 212.287H140.615C139.259 212.287 138.159 213.385 138.159 214.74V217.984C138.159 219.339 139.259 220.437 140.615 220.437H212.626C213.982 220.437 215.082 219.339 215.082 217.984V214.74C215.082 213.385 213.982 212.287 212.626 212.287Z" fill="#E6E6E6"/>
<path d="M212.626 228.586H140.615C139.259 228.586 138.159 229.684 138.159 231.039V234.283C138.159 235.638 139.259 236.736 140.615 236.736H212.626C213.982 236.736 215.082 235.638 215.082 234.283V231.039C215.082 229.684 213.982 228.586 212.626 228.586Z" fill="#E6E6E6"/>
<path d="M218.73 283.166L218.893 283.68L218.902 283.697L223.811 298.604L229.459 315.781L240.085 348.063L240.188 353.078V353.095L240.977 393.434L238.789 398.903L241.252 407.869C241.252 407.869 240.119 394.315 234.042 402.099C230.6 406.522 226.575 411.048 223.27 415.291C228.085 417.237 232.978 418.997 237.947 420.571C239.02 420.914 240.102 421.24 241.183 421.565C241.415 421.634 241.647 421.703 241.878 421.771C258.352 426.636 275.383 429.37 292.553 429.906C293.446 429.932 294.321 429.949 295.171 429.966C295.471 429.974 295.763 429.983 296.055 429.983C297.016 429.992 297.969 430 298.93 430C300.87 430 302.801 429.971 304.724 429.914C318.954 429.514 333.101 427.603 346.927 424.214C346.832 418.514 346.575 411.853 346.206 404.739C346.034 401.25 342.18 397.47 341.949 393.818C341.786 391.075 345.245 388.495 345.064 385.709C343.897 368.557 342.438 375.141 341.356 362.995C341.245 361.804 341.142 360.664 341.047 359.575C340.352 351.775 339.872 346.897 339.872 346.897L344.489 317.83L351.742 272.194L351.184 271.277L350.557 270.968L312.303 252.058L310.226 246.744C309.62 245.213 308.57 243.898 307.211 242.967C305.851 242.037 304.243 241.534 302.595 241.524L277.395 241.421C276.087 241.415 274.797 241.721 273.631 242.312C272.465 242.904 271.458 243.765 270.692 244.824L263.868 254.261L218.73 283.166Z" fill="#3F3D56"/>
<path d="M245.895 340.88L240.188 353.078L236.291 361.409L229.588 396.46L226.232 400.017L223.356 387.424L193.262 394.097C192.275 388.62 192.998 394.282 192.388 388.273C192.56 388.102 192.74 387.931 192.921 387.759C193.401 387.313 193.805 386.893 193.796 386.49C193.453 365.764 194.483 330.491 203.083 309.121C204.43 305.632 206.206 302.324 208.37 299.272C208.542 299.041 208.705 298.809 208.868 298.578C212.833 293.032 215.34 287.572 218.893 283.689V283.68C218.915 283.662 218.935 283.642 218.953 283.62C218.966 283.614 218.978 283.605 218.987 283.594L243.398 270.668L244.445 300.052L245.192 321.173L245.895 340.88Z" fill="#3F3D56"/>
<path d="M333.914 344.344L341.044 359.579L343.532 364.885L350.234 399.932L353.579 403.48L356.461 390.89L357.815 390.613L382.237 385.562L389.355 408.139C390.959 405.469 391.591 402.328 391.144 399.247C390.697 396.165 389.198 393.333 386.901 391.228C386.415 390.789 386.01 390.361 386.021 389.956C386.427 365.578 384.933 321.064 371.45 302.743C367.167 296.929 364.598 291.138 360.859 287.092C360.847 287.081 360.847 287.069 360.836 287.069L351.739 272.193L351.183 271.28L350.558 270.967L333.914 344.344Z" fill="#3F3D56"/>
<path d="M290.723 234.259C309.239 234.259 324.249 219.268 324.249 200.777C324.249 182.286 309.239 167.296 290.723 167.296C272.208 167.296 257.198 182.286 257.198 200.777C257.198 219.268 272.208 234.259 290.723 234.259Z" fill="#FFB6B6"/>
<path d="M336.037 177.39C335.777 177.113 335.464 176.891 335.116 176.737C334.768 176.584 334.393 176.502 334.013 176.496L334.517 175.099C334.681 174.658 334.726 174.182 334.646 173.719C334.565 173.256 334.363 172.823 334.06 172.464C333.757 172.104 333.363 171.832 332.92 171.674C332.477 171.517 332 171.48 331.537 171.567L329.702 171.92L329.875 170.695C329.941 170.239 329.887 169.774 329.719 169.344C329.55 168.915 329.273 168.537 328.914 168.248C328.555 167.958 328.126 167.767 327.671 167.693C327.215 167.619 326.748 167.664 326.316 167.825C325.922 167.98 325.499 168.044 325.077 168.014C324.655 167.985 324.246 167.861 323.878 167.652C323.509 167.45 323.188 167.17 322.939 166.831C322.689 166.492 322.517 166.103 322.433 165.691L321.794 162.61L321.726 162.445C318.611 157.26 312.622 153.488 305.294 152.105C298.771 150.866 292.082 151.497 285.634 152.09C283.076 152.331 280.186 152.601 277.779 154.074C275.732 155.336 274.002 157.861 274.355 160.408C267.998 158.462 261.181 162.347 257.803 167.246C253.8 173.077 253.145 180.381 253.04 186.092C252.754 199.602 255.545 210.655 261.316 218.951C261.738 219.552 261.843 220.807 262.678 221.228L262.505 220.95C263.438 221.415 264.386 222.167 264.032 222.971C263.017 225.285 269.766 230.402 274.521 232.093C283.196 235.181 294.73 234.918 302.841 233.806L303.127 231.89C306.054 231.492 308.115 230.733 308.695 229.546C309.718 228.674 310.591 227.893 311.351 227.171L311.358 227.164C311.373 227.149 311.403 227.126 311.418 227.111C315.082 223.602 315.933 221.603 316.316 218.56C316.685 215.577 316.031 212.549 315.361 209.821C329.461 212 309.808 194.823 322.945 191.502C323.096 191.455 323.249 191.418 323.404 191.389C323.788 191.299 324.171 191.209 324.54 191.104C326.317 190.622 328.019 189.896 329.596 188.947C333.268 186.715 334.479 183.755 336.375 180.419C336.649 179.944 336.764 179.394 336.703 178.849C336.642 178.304 336.408 177.793 336.037 177.39Z" fill="#2F2E41"/>
<path d="M409.297 346.728C409.29 348.043 409.275 349.884 409.215 352.161C409.207 352.476 409.2 352.799 409.192 353.13C409.094 357.315 408.997 360.824 408.839 364.724C408.831 364.995 408.823 365.258 408.808 365.528C408.598 370.968 408.267 377.303 407.695 387.334C406.634 405.864 404.783 389.881 402.925 396.381C402.834 396.704 402.737 397.088 402.646 397.538C402.365 399.174 401.89 400.771 401.232 402.295C400.246 402.881 399.23 403.444 398.23 404.008C395.378 405.593 392.481 407.119 389.562 408.569C387.922 409.381 386.274 410.177 384.619 410.943C384.356 411.064 384.1 411.184 383.844 411.297C375.368 415.212 366.632 418.541 357.698 421.26C355.953 421.786 354.215 422.297 352.454 422.771C350.618 423.282 348.782 423.763 346.924 424.213C333.099 427.603 318.952 429.515 304.722 429.917C302.803 429.977 300.87 429.999 298.929 429.999C297.965 429.999 297.017 429.992 296.054 429.984C295.761 429.984 295.468 429.977 295.174 429.969C294.324 429.947 293.444 429.932 292.556 429.909C275.385 429.374 258.355 426.639 241.882 421.771L241.182 421.568C240.099 421.238 239.023 420.915 237.947 420.569C232.981 418.999 228.088 417.24 223.268 415.294C219.588 413.814 215.952 412.226 212.358 410.53C212.325 410.521 212.294 410.506 212.268 410.485C211.515 410.139 210.755 409.779 210.003 409.411C209.905 409.358 209.8 409.305 209.694 409.253C206.888 407.885 204.112 406.453 201.365 404.955C199.056 399.657 195.805 398.643 193.789 393.984C193.202 392.6 192.778 391.153 192.525 389.671C192.525 389.656 192.517 389.641 192.517 389.618C192.728 392.414 191.622 384.659 192.51 389.588C192.502 389.498 192.495 389.401 192.487 389.288C192.465 389.017 192.435 388.687 192.389 388.273C189.809 363.109 189.974 334.33 188.853 310.615C188.778 309.082 188.7 307.615 188.62 306.212C188.597 305.746 188.567 305.288 188.537 304.837C188.59 304.702 188.65 304.559 188.718 304.424C188.732 304.385 188.75 304.347 188.77 304.311C188.792 304.264 188.818 304.219 188.846 304.176C188.861 304.153 188.883 304.123 188.898 304.101C188.909 304.075 188.922 304.05 188.936 304.025C189.004 303.92 189.079 303.808 189.162 303.702C189.199 303.657 189.229 303.62 189.267 303.582C189.293 303.544 189.323 303.508 189.357 303.477C189.38 303.441 189.408 303.408 189.44 303.379C189.47 303.349 189.5 303.312 189.538 303.274C189.554 303.25 189.574 303.23 189.598 303.214C189.657 303.146 189.723 303.083 189.794 303.026C190.062 302.779 190.349 302.553 190.651 302.35C190.757 302.282 190.869 302.215 190.975 302.139C191.733 301.686 192.531 301.304 193.36 300.997C193.646 300.892 193.932 300.794 194.24 300.689C194.353 300.659 194.458 300.622 194.571 300.584C194.737 300.531 194.902 300.479 195.075 300.441C195.933 300.186 196.859 299.968 197.859 299.765C197.98 299.742 198.108 299.72 198.235 299.69C198.416 299.652 198.604 299.622 198.792 299.592C199.048 299.547 199.311 299.502 199.575 299.457C201.809 299.104 204.345 298.841 207.144 298.668C207.407 298.653 207.67 298.638 207.934 298.623C208.242 298.608 208.551 298.593 208.867 298.578C209.13 298.563 209.401 298.555 209.672 298.548C209.935 298.533 210.206 298.525 210.484 298.518C211.244 298.495 212.027 298.473 212.824 298.458C215.097 298.412 217.489 298.427 220.002 298.48C221.168 298.51 222.357 298.54 223.576 298.593C223.659 298.593 223.734 298.6 223.809 298.6C224.87 298.638 225.939 298.683 227.037 298.743C227.805 298.781 228.58 298.818 229.354 298.863C230.084 298.908 230.822 298.953 231.567 299.006C232.146 299.036 232.725 299.081 233.312 299.119C233.809 299.156 234.305 299.194 234.802 299.224L235.479 299.269C235.848 299.299 236.216 299.322 236.593 299.359C237.42 299.427 238.248 299.494 239.091 299.562C239.926 299.637 240.776 299.712 241.626 299.788C242.476 299.863 243.334 299.945 244.192 300.028C244.282 300.035 244.365 300.043 244.448 300.05C245.23 300.133 246.013 300.208 246.803 300.291C246.983 300.306 247.171 300.321 247.352 300.344C248.105 300.419 248.873 300.508 249.633 300.588C249.866 300.613 250.098 300.638 250.332 300.663C250.928 300.728 251.515 300.784 252.114 300.855C252.904 300.945 253.71 301.027 254.492 301.133C255.101 301.2 255.711 301.268 256.32 301.343C257.276 301.456 258.246 301.576 259.217 301.704C259.586 301.749 259.954 301.794 260.323 301.846C263.092 302.192 265.891 302.575 268.735 302.973C273.046 303.582 277.425 304.243 281.834 304.957C286.251 305.671 290.692 306.425 295.159 307.219C296.288 307.422 297.416 307.625 298.552 307.835C299.064 307.933 299.576 308.03 300.087 308.128C300.96 308.286 301.833 308.451 302.705 308.617C303.578 308.782 304.451 308.947 305.324 309.12C306.362 309.323 307.408 309.526 308.446 309.729C315.286 311.081 322.087 312.524 328.723 314.034C329.814 314.282 330.905 314.538 331.989 314.786C334.156 315.289 336.302 315.8 338.429 316.318C339.016 316.454 339.595 316.597 340.175 316.739C341.619 317.1 343.064 317.461 344.486 317.829L344.734 317.896C345.78 318.152 346.803 318.415 347.827 318.685C350.242 319.317 352.617 319.955 354.952 320.602C356.502 321.03 358.034 321.463 359.549 321.901C361.814 322.555 364.033 323.216 366.193 323.885C366.727 324.05 367.261 324.216 367.788 324.374C369.368 324.862 370.925 325.358 372.438 325.854C373.641 326.245 374.815 326.643 375.974 327.041C377.132 327.439 378.269 327.838 379.382 328.236C380.097 328.491 380.804 328.762 381.511 329.017C382.527 329.393 383.528 329.769 384.506 330.144C384.807 330.257 385.1 330.377 385.394 330.49C385.582 330.573 385.762 330.64 385.943 330.715C386.297 330.858 386.658 330.993 387.004 331.136C387.358 331.272 387.704 331.414 388.05 331.565C388.388 331.7 388.734 331.843 389.065 331.985C389.404 332.121 389.735 332.263 390.066 332.414C390.345 332.526 390.615 332.647 390.879 332.767C391.413 333 391.947 333.233 392.466 333.473C392.722 333.593 392.978 333.706 393.234 333.826L393.821 334.097C393.903 334.142 393.986 334.179 394.069 334.217C394.257 334.307 394.453 334.405 394.641 334.495C395.077 334.698 395.506 334.916 395.927 335.119C396.492 335.404 397.041 335.69 397.568 335.968C398.102 336.253 398.621 336.539 399.117 336.817C399.2 336.862 399.275 336.907 399.358 336.952C399.471 337.012 399.584 337.08 399.697 337.14C400.081 337.358 400.449 337.583 400.818 337.801C401.54 338.245 402.225 338.68 402.864 339.116C403.007 339.214 403.143 339.312 403.286 339.402C403.76 339.74 404.211 340.07 404.633 340.409C404.633 340.416 404.633 340.416 404.64 340.416C404.783 340.521 404.918 340.634 405.054 340.739C405.167 340.844 405.287 340.935 405.4 341.04C405.791 341.378 406.152 341.701 406.483 342.032C406.594 342.134 406.7 342.242 406.799 342.355C406.843 342.391 406.884 342.431 406.92 342.475C407.07 342.625 407.206 342.776 407.334 342.926C407.353 342.946 407.371 342.969 407.386 342.993C407.567 343.204 407.732 343.414 407.89 343.625C407.966 343.73 408.048 343.835 408.116 343.94C408.206 344.068 408.297 344.203 408.372 344.331C408.44 344.436 408.5 344.549 408.56 344.654C408.72 344.925 408.856 345.209 408.966 345.503C409.051 345.703 409.119 345.909 409.169 346.119C409.226 346.319 409.269 346.522 409.297 346.728Z" fill="#2F2E41"/>
<path opacity="0.2" d="M409.297 346.728C409.29 348.043 409.275 349.884 409.215 352.161C409.207 352.476 409.192 352.799 409.185 353.13C409.109 356.324 408.997 360.268 408.839 364.724C408.831 364.995 408.823 365.258 408.808 365.528C408.598 370.969 408.267 377.303 407.695 387.334C406.634 405.864 404.783 389.882 402.925 396.381C397.763 393.21 392.105 389.889 386.056 386.478C384.965 385.861 383.864 385.243 382.753 384.622C370.654 377.882 357.141 370.818 343.034 363.823C342.477 363.545 341.913 363.267 341.356 362.996C309.041 347.044 273.768 331.527 245.192 321.173C239.677 319.174 234.411 317.371 229.46 315.785C219.032 312.456 210.018 310.127 203.081 309.12C195.858 308.068 190.869 308.444 188.853 310.615C188.778 309.082 188.7 307.615 188.62 306.212C188.59 305.746 188.56 305.288 188.529 304.837C188.576 304.713 188.636 304.595 188.695 304.476C188.703 304.459 188.709 304.441 188.718 304.424C188.732 304.385 188.75 304.347 188.77 304.311C188.792 304.264 188.818 304.219 188.846 304.176C188.87 304.122 188.9 304.072 188.936 304.025C189.004 303.92 189.079 303.808 189.162 303.702C189.222 303.624 189.288 303.548 189.357 303.477C189.38 303.441 189.408 303.408 189.44 303.379C189.47 303.349 189.5 303.312 189.538 303.274C189.554 303.25 189.574 303.23 189.598 303.214C189.657 303.146 189.723 303.083 189.794 303.026C190.062 302.779 190.349 302.553 190.651 302.35C190.757 302.282 190.869 302.215 190.975 302.139C191.733 301.686 192.531 301.304 193.36 300.997C193.646 300.892 193.932 300.794 194.24 300.689C194.353 300.659 194.458 300.622 194.571 300.584C194.737 300.531 194.902 300.479 195.075 300.441C195.933 300.186 196.859 299.968 197.859 299.765C198.16 299.705 198.476 299.645 198.792 299.592C199.048 299.547 199.311 299.502 199.575 299.457C201.809 299.104 204.345 298.841 207.144 298.668C207.407 298.653 207.67 298.638 207.934 298.623C208.242 298.608 208.551 298.593 208.867 298.578C209.13 298.563 209.401 298.555 209.672 298.548C209.935 298.533 210.206 298.525 210.484 298.518C211.244 298.495 212.027 298.473 212.824 298.457C215.097 298.42 217.489 298.435 220.002 298.488C221.168 298.51 222.357 298.548 223.576 298.6C223.651 298.6 223.734 298.608 223.809 298.608C224.87 298.638 225.946 298.69 227.037 298.743C227.805 298.781 228.58 298.818 229.354 298.863C230.084 298.908 230.822 298.953 231.567 299.006C232.146 299.036 232.725 299.081 233.312 299.119C233.809 299.156 234.305 299.194 234.802 299.224C235.396 299.269 235.991 299.314 236.593 299.359C237.42 299.427 238.248 299.494 239.09 299.562C239.926 299.637 240.776 299.712 241.626 299.787C242.476 299.863 243.334 299.945 244.192 300.028C244.282 300.035 244.365 300.043 244.448 300.05C245.23 300.133 246.013 300.208 246.803 300.291C251.181 300.734 255.688 301.253 260.323 301.846C263.092 302.2 265.896 302.578 268.735 302.981C273.046 303.59 277.425 304.251 281.834 304.957C286.251 305.671 290.692 306.425 295.159 307.219C296.288 307.422 297.416 307.625 298.552 307.835C299.937 308.091 301.321 308.351 302.706 308.617C303.578 308.782 304.451 308.947 305.324 309.12C306.362 309.323 307.408 309.526 308.446 309.729C315.286 311.081 322.087 312.524 328.723 314.034C329.814 314.282 330.905 314.538 331.989 314.786C334.156 315.289 336.302 315.8 338.429 316.318C339.016 316.461 339.595 316.604 340.175 316.747C341.627 317.107 343.064 317.468 344.486 317.829V317.836C344.569 317.851 344.652 317.874 344.734 317.896C345.773 318.159 346.803 318.422 347.827 318.693C350.242 319.324 352.617 319.96 354.952 320.602C356.502 321.037 358.037 321.466 359.549 321.901C361.814 322.563 364.033 323.224 366.193 323.885C366.727 324.05 367.261 324.216 367.788 324.374C369.368 324.87 370.918 325.363 372.438 325.854C373.641 326.245 374.815 326.643 375.974 327.041C377.133 327.439 378.269 327.838 379.382 328.236C380.104 328.491 380.812 328.754 381.511 329.01C382.535 329.385 383.528 329.761 384.506 330.144C384.807 330.257 385.1 330.377 385.394 330.49C385.943 330.7 386.477 330.918 387.004 331.136C387.358 331.272 387.704 331.414 388.05 331.565C388.388 331.7 388.734 331.843 389.065 331.985C389.404 332.121 389.735 332.263 390.066 332.414C390.345 332.526 390.615 332.647 390.879 332.767C391.413 333 391.947 333.233 392.466 333.473C392.722 333.593 392.978 333.706 393.234 333.826L393.821 334.097C393.903 334.142 393.986 334.179 394.069 334.217C394.708 334.518 395.325 334.818 395.927 335.119C396.492 335.404 397.041 335.69 397.568 335.968C398.192 336.298 398.786 336.622 399.358 336.952C399.471 337.012 399.584 337.08 399.697 337.14C400.081 337.358 400.449 337.583 400.818 337.801C401.54 338.245 402.225 338.68 402.864 339.116C403.496 339.552 404.083 339.98 404.633 340.409C404.633 340.416 404.633 340.416 404.64 340.416C404.903 340.627 405.159 340.837 405.4 341.04C405.791 341.378 406.152 341.701 406.483 342.032C406.594 342.134 406.7 342.242 406.799 342.355C406.843 342.391 406.884 342.431 406.92 342.475C407.078 342.648 407.236 342.821 407.386 342.994C407.567 343.204 407.732 343.414 407.89 343.625C407.966 343.73 408.048 343.835 408.116 343.94C408.206 344.068 408.297 344.203 408.372 344.331C408.44 344.436 408.5 344.549 408.56 344.654C408.72 344.925 408.856 345.209 408.966 345.503C409.049 345.703 409.117 345.909 409.17 346.119C409.227 346.319 409.269 346.522 409.297 346.728Z" fill="black"/>
</g>
<defs>
<clipPath id="clip0_11_111">
<rect width="592" height="430" fill="white"/>
</clipPath>
</defs>
</svg>
