<svg width="60" height="46" viewBox="0 0 60 46" fill="none" xmlns="http://www.w3.org/2000/svg">
<path d="M18.7998 35.7998V30.7998H23.7998C25.0132 30.7998 26 29.8125 26 28.5996V21.3999C26 20.187 25.0132 19.2002 23.7998 19.2002H19C18.9315 19.2002 18.8668 19.2143 18.7998 19.2205V14.2002C18.7998 12.9868 17.813 12 16.6001 12H9.3999C8.18701 12 7.2002 12.9868 7.2002 14.2002V19.2002H2.2002C0.986816 19.2002 0 20.187 0 21.3999V28.5996C0 29.8125 0.986816 30.7998 2.2002 30.7998H7C7.06854 30.7998 7.13324 30.7857 7.2002 30.7795V35.7998C7.2002 37.0127 8.18701 38 9.3999 38H16.6001C17.813 38 18.7998 37.0127 18.7998 35.7998ZM7.2002 26.2002V28.5996C7.2002 28.71 7.11035 28.7998 7 28.7998H2.2002C2.08984 28.7998 2 28.71 2 28.5996V21.3999C2 21.2896 2.08984 21.2002 2.2002 21.2002H13C13.5522 21.2002 14 20.7524 14 20.2002C14 19.6479 13.5522 19.2002 13 19.2002H9.2002V14.2002C9.2002 14.0898 9.28955 14 9.3999 14H16.6001C16.7104 14 16.7998 14.0898 16.7998 14.2002V20.2002C16.7998 20.3738 16.8557 20.5289 16.9335 20.6712C16.8524 20.9005 16.7998 21.1432 16.7998 21.3999V23.7998C16.7998 23.9102 16.7104 24 16.6001 24H9.3999C8.18701 24 7.2002 24.9873 7.2002 26.2002ZM9.2002 35.7998V29.7998C9.2002 29.626 9.14423 29.4708 9.06641 29.3285C9.14764 29.0992 9.2002 28.8563 9.2002 28.5996V26.2002C9.2002 26.0898 9.28955 26 9.3999 26H16.6001C17.813 26 18.7998 25.0127 18.7998 23.7998V21.3999C18.7998 21.2896 18.8896 21.2002 19 21.2002H23.7998C23.9102 21.2002 24 21.2896 24 21.3999V28.5996C24 28.71 23.9102 28.7998 23.7998 28.7998H13C12.4478 28.7998 12 29.2471 12 29.7998C12 30.3525 12.4478 30.7998 13 30.7998H16.7998V35.7998C16.7998 35.9102 16.7104 36 16.6001 36H9.3999C9.28955 36 9.2002 35.9102 9.2002 35.7998Z" fill="black"/>
<path d="M57 0H13C11.35 0 10 1.34998 10 3V8H12V3C12 2.45001 12.45 2 13 2H57C57.55 2 58 2.45001 58 3V8H16.6C18.4 8 20.02 8.76996 21.14 10C22.17 11.1 22.8 12.58 22.8 14.2V15.2H23.8C27.22 15.2 30 17.98 30 21.4V28.6C30 32.02 27.22 34.8 23.8 34.8H22.8V35.8C22.8 39.22 20.02 42 16.6 42H12H10V43C10 44.65 11.35 46 13 46H57C58.65 46 60 44.65 60 43V3C60 1.34998 58.65 0 57 0ZM42.11 19.55L44.11 15.55C44.35 15.06 44.95 14.86 45.45 15.11C45.94 15.35 46.14 15.95 45.89 16.45L43.89 20.45C43.72 20.8 43.37 21 43 21C42.85 21 42.7 20.97 42.55 20.89C42.06 20.65 41.86 20.05 42.11 19.55ZM35.29 17.29L39.29 13.29C39.68 12.9 40.32 12.9 40.71 13.29C41.1 13.68 41.1 14.32 40.71 14.71L37.41 18L40.71 21.29C41.1 21.68 41.1 22.32 40.71 22.71C40.51 22.9 40.26 23 40 23C39.74 23 39.49 22.9 39.29 22.71L35.29 18.71C34.9 18.32 34.9 17.68 35.29 17.29ZM35 27H45C45.55 27 46 27.45 46 28C46 28.55 45.55 29 45 29H35C34.45 29 34 28.55 34 28C34 27.45 34.45 27 35 27ZM38 41H35C34.45 41 34 40.55 34 40C34 39.45 34.45 39 35 39H38C38.55 39 39 39.45 39 40C39 40.55 38.55 41 38 41ZM52 41H42C41.45 41 41 40.55 41 40C41 39.45 41.45 39 42 39H52C52.55 39 53 39.45 53 40C53 40.55 52.55 41 52 41ZM52 35H35C34.45 35 34 34.55 34 34C34 33.45 34.45 33 35 33H52C52.55 33 53 33.45 53 34C53 34.55 52.55 35 52 35ZM52 29H49C48.45 29 48 28.55 48 28C48 27.45 48.45 27 49 27H52C52.55 27 53 27.45 53 28C53 28.55 52.55 29 52 29ZM52.71 18.71L48.71 22.71C48.51 22.9 48.26 23 48 23C47.74 23 47.49 22.9 47.29 22.71C46.9 22.32 46.9 21.68 47.29 21.29L50.59 18L47.29 14.71C46.9 14.32 46.9 13.68 47.29 13.29C47.68 12.9 48.32 12.9 48.71 13.29L52.71 17.29C53.1 17.68 53.1 18.32 52.71 18.71Z" fill="black"/>
<path d="M14.6196 5.91993C14.7397 5.96974 14.8696 6.00001 15 6.00001C15.1299 6.00001 15.2598 5.96974 15.3799 5.91993C15.5098 5.86964 15.6099 5.79982 15.71 5.70997C15.7998 5.60987 15.8696 5.50001 15.9199 5.37989C15.98 5.25978 16 5.12989 16 5.00001C16 4.86964 15.98 4.73976 15.9199 4.61964C15.8696 4.50001 15.7998 4.38966 15.71 4.29005C15.6099 4.19972 15.5 4.12989 15.3799 4.0796C15.02 3.91993 14.5698 4.00978 14.29 4.29005C14.1997 4.38966 14.1299 4.50001 14.0796 4.61964C14.0298 4.73976 14 4.86964 14 5.00001C14 5.12989 14.0298 5.25978 14.0796 5.37989C14.1299 5.50001 14.1997 5.60987 14.29 5.70997C14.3896 5.79982 14.5 5.86964 14.6196 5.91993Z" fill="black"/>
<path d="M18.4399 5.82961C18.5 5.86965 18.5601 5.89992 18.6196 5.91994C18.6797 5.94973 18.7397 5.96974 18.7998 5.98C18.8696 5.98976 18.9297 6.00002 19 6.00002C19.1299 6.00002 19.2598 5.96974 19.3799 5.91994C19.5098 5.86965 19.6099 5.79982 19.71 5.70998C19.8896 5.52004 20 5.25978 20 5.00002C20 4.73976 19.8896 4.48 19.71 4.29006C19.6099 4.19973 19.5098 4.1299 19.3799 4.07961C19.1997 4.00002 19 3.98 18.7998 4.02004C18.7397 4.0298 18.6797 4.04982 18.6196 4.07961C18.5601 4.09963 18.5 4.1299 18.4399 4.16994C18.3896 4.20998 18.3398 4.25002 18.29 4.29006C18.1997 4.38967 18.1299 4.50002 18.0796 4.61965C18.0298 4.73976 18 4.86965 18 5.00002C18 5.1299 18.0298 5.25978 18.0796 5.3799C18.1299 5.50002 18.1997 5.60988 18.29 5.70998C18.3398 5.75002 18.3896 5.79982 18.4399 5.82961Z" fill="black"/>
<path d="M22.4399 5.82961C22.5 5.86965 22.5601 5.89992 22.6196 5.91994C22.6797 5.94973 22.7397 5.96974 22.7998 5.98C22.8696 5.98976 22.9297 6.00002 23 6.00002C23.1299 6.00002 23.2598 5.96974 23.3799 5.91994C23.5098 5.86965 23.6099 5.79982 23.71 5.70998C23.8896 5.52004 24 5.25978 24 5.00002C24 4.86965 23.9697 4.73976 23.9199 4.61965C23.8696 4.50002 23.7998 4.38967 23.71 4.29006C23.6099 4.19973 23.5098 4.1299 23.3799 4.07961C23.1997 4.00002 23 3.98 22.7998 4.02004C22.7397 4.0298 22.6797 4.04982 22.6196 4.07961C22.5601 4.09963 22.5 4.1299 22.4399 4.16994C22.3896 4.20998 22.3398 4.25002 22.29 4.29006C22.1997 4.38967 22.1299 4.50002 22.0796 4.61965C22.0298 4.73976 22 4.86965 22 5.00002C22 5.1299 22.0298 5.25978 22.0796 5.3799C22.1299 5.50002 22.1997 5.60988 22.29 5.70998C22.3398 5.75002 22.3896 5.79982 22.4399 5.82961Z" fill="black"/>
</svg>
