<svg width="20" height="20" viewBox="0 0 20 20" fill="none" xmlns="http://www.w3.org/2000/svg">
<path d="M18.1842 10.3583C18.115 10.2592 16.4658 7.905 14.19 6.29583C13.01 5.46 11.5217 5 9.99999 5C8.47915 5 6.99082 5.46 5.80832 6.29583C3.53249 7.905 1.88499 10.2592 1.81582 10.3583C1.71886 10.4979 1.6669 10.6638 1.6669 10.8338C1.6669 11.0037 1.71886 11.1696 1.81582 11.3092C1.88499 11.4083 3.53249 13.7625 5.80832 15.3717C6.99082 16.2067 8.47915 16.6667 9.99999 16.6667C11.5217 16.6667 13.01 16.2067 14.19 15.3708C16.4658 13.7617 18.115 11.4075 18.1842 11.3083C18.2814 11.169 18.3335 11.0032 18.3335 10.8333C18.3335 10.6634 18.2814 10.4977 18.1842 10.3583ZM9.99999 13.75C8.38832 13.75 7.08332 12.4417 7.08332 10.8333C7.08332 9.22167 8.38832 7.91667 9.99999 7.91667C11.6083 7.91667 12.9167 9.22167 12.9167 10.8333C12.9167 12.4417 11.6083 13.75 9.99999 13.75ZM11.6667 10.8333C11.6667 11.7517 10.9183 12.5 9.99999 12.5C9.67035 12.5 9.34812 12.4023 9.07404 12.2191C8.79995 12.036 8.58633 11.7757 8.46019 11.4711C8.33404 11.1666 8.30103 10.8315 8.36534 10.5082C8.42965 10.1849 8.58839 9.88791 8.82148 9.65482C9.05456 9.42173 9.35153 9.263 9.67484 9.19869C9.99814 9.13438 10.3332 9.16739 10.6378 9.29353C10.9423 9.41968 11.2026 9.6333 11.3858 9.90738C11.5689 10.1815 11.6667 10.5037 11.6667 10.8333Z" fill="black"/>
</svg>
