<svg width="20" height="20" viewBox="0 0 20 20" fill="none" xmlns="http://www.w3.org/2000/svg">
<path d="M18.1842 10.3583C18.115 10.2592 16.4658 7.905 14.19 6.29583C13.01 5.46 11.5217 5 10 5C8.47918 5 6.99085 5.46 5.80835 6.29583C3.53252 7.905 1.88502 10.2592 1.81585 10.3583C1.71889 10.4979 1.66693 10.6638 1.66693 10.8338C1.66693 11.0037 1.71889 11.1696 1.81585 11.3092C1.88502 11.4083 3.53252 13.7625 5.80835 15.3717C6.99085 16.2067 8.47918 16.6667 10 16.6667C11.5217 16.6667 13.01 16.2067 14.19 15.3708C16.4658 13.7617 18.115 11.4075 18.1842 11.3083C18.2814 11.169 18.3335 11.0032 18.3335 10.8333C18.3335 10.6634 18.2814 10.4977 18.1842 10.3583ZM10 13.75C8.38835 13.75 7.08335 12.4417 7.08335 10.8333C7.08335 9.22167 8.38835 7.91667 10 7.91667C11.6083 7.91667 12.9167 9.22167 12.9167 10.8333C12.9167 12.4417 11.6083 13.75 10 13.75ZM11.6667 10.8333C11.6667 11.7517 10.9183 12.5 10 12.5C9.67038 12.5 9.34815 12.4023 9.07407 12.2191C8.79998 12.036 8.58636 11.7757 8.46022 11.4711C8.33407 11.1666 8.30107 10.8315 8.36537 10.5082C8.42968 10.1849 8.58842 9.88791 8.82151 9.65482C9.05459 9.42173 9.35156 9.263 9.67487 9.19869C9.99817 9.13438 10.3333 9.16739 10.6378 9.29353C10.9424 9.41968 11.2027 9.6333 11.3858 9.90738C11.5689 10.1815 11.6667 10.5037 11.6667 10.8333Z" fill="white"/>
</svg>
