<svg width="62" height="46" viewBox="0 0 62 46" fill="none" xmlns="http://www.w3.org/2000/svg">
<path d="M19.7366 35.7998V30.7998H24.7661C25.9867 30.7998 26.9793 29.8125 26.9793 28.5996V21.3999C26.9793 20.187 25.9867 19.2002 24.7661 19.2002H19.938C19.8691 19.2002 19.804 19.2143 19.7366 19.2205V14.2002C19.7366 12.9868 18.744 12 17.524 12H10.2813C9.06124 12 8.0686 12.9868 8.0686 14.2002V19.2002H3.0391C1.81857 19.2002 0.825928 20.187 0.825928 21.3999V28.5996C0.825928 29.8125 1.81857 30.7998 3.0391 30.7998H7.86723C7.93617 30.7998 8.00125 30.7857 8.0686 30.7795V35.7998C8.0686 37.0127 9.06124 38 10.2813 38H17.524C18.744 38 19.7366 37.0127 19.7366 35.7998ZM8.0686 26.2002V28.5996C8.0686 28.71 7.97823 28.7998 7.86723 28.7998H3.0391C2.9281 28.7998 2.83773 28.71 2.83773 28.5996V21.3999C2.83773 21.2896 2.9281 21.2002 3.0391 21.2002H13.9026C14.4581 21.2002 14.9085 20.7524 14.9085 20.2002C14.9085 19.6479 14.4581 19.2002 13.9026 19.2002H10.0804V14.2002C10.0804 14.0898 10.1703 14 10.2813 14H17.524C17.635 14 17.7248 14.0898 17.7248 14.2002V20.2002C17.7248 20.3738 17.7811 20.5289 17.8594 20.6712C17.7777 20.9005 17.7248 21.1432 17.7248 21.3999V23.7998C17.7248 23.9102 17.635 24 17.524 24H10.2813C9.06124 24 8.0686 24.9873 8.0686 26.2002ZM10.0804 35.7998V29.7998C10.0804 29.626 10.0241 29.4708 9.94582 29.3285C10.0275 29.0992 10.0804 28.8563 10.0804 28.5996V26.2002C10.0804 26.0898 10.1703 26 10.2813 26H17.524C18.744 26 19.7366 25.0127 19.7366 23.7998V21.3999C19.7366 21.2896 19.827 21.2002 19.938 21.2002H24.7661C24.8771 21.2002 24.9675 21.2896 24.9675 21.3999V28.5996C24.9675 28.71 24.8771 28.7998 24.7661 28.7998H13.9026C13.3471 28.7998 12.8967 29.2471 12.8967 29.7998C12.8967 30.3525 13.3471 30.7998 13.9026 30.7998H17.7248V35.7998C17.7248 35.9102 17.635 36 17.524 36H10.2813C10.1703 36 10.0804 35.9102 10.0804 35.7998Z" fill="white"/>
<path d="M58.1623 0H13.9027C12.2429 0 10.885 1.34998 10.885 3V8H12.8968V3C12.8968 2.45001 13.3495 2 13.9027 2H58.1623C58.7155 2 59.1682 2.45001 59.1682 3V8H17.5239C19.3346 8 20.9641 8.76996 22.0907 10C23.1268 11.1 23.7605 12.58 23.7605 14.2V15.2H24.7664C28.2066 15.2 31.003 17.98 31.003 21.4V28.6C31.003 32.02 28.2066 34.8 24.7664 34.8H23.7605V35.8C23.7605 39.22 20.9641 42 17.5239 42H12.8968H10.885V43C10.885 44.65 12.2429 46 13.9027 46H58.1623C59.8221 46 61.18 44.65 61.18 43V3C61.18 1.34998 59.8221 0 58.1623 0ZM43.1844 19.55L45.1962 15.55C45.4376 15.06 46.0412 14.86 46.5442 15.11C47.0371 15.35 47.2382 15.95 46.9868 16.45L44.975 20.45C44.8039 20.8 44.4519 21 44.0797 21C43.9288 21 43.7779 20.97 43.627 20.89C43.1342 20.65 42.933 20.05 43.1844 19.55ZM36.3242 17.29L40.3478 13.29C40.7401 12.9 41.3839 12.9 41.7762 13.29C42.1685 13.68 42.1685 14.32 41.7762 14.71L38.4567 18L41.7762 21.29C42.1685 21.68 42.1685 22.32 41.7762 22.71C41.575 22.9 41.3235 23 41.062 23C40.8005 23 40.549 22.9 40.3478 22.71L36.3242 18.71C35.9319 18.32 35.9319 17.68 36.3242 17.29ZM36.0325 27H46.0915C46.6447 27 47.0974 27.45 47.0974 28C47.0974 28.55 46.6447 29 46.0915 29H36.0325C35.4793 29 35.0266 28.55 35.0266 28C35.0266 27.45 35.4793 27 36.0325 27ZM39.0502 41H36.0325C35.4793 41 35.0266 40.55 35.0266 40C35.0266 39.45 35.4793 39 36.0325 39H39.0502C39.6034 39 40.0561 39.45 40.0561 40C40.0561 40.55 39.6034 41 39.0502 41ZM53.1328 41H43.0738C42.5206 41 42.0679 40.55 42.0679 40C42.0679 39.45 42.5206 39 43.0738 39H53.1328C53.686 39 54.1387 39.45 54.1387 40C54.1387 40.55 53.686 41 53.1328 41ZM53.1328 35H36.0325C35.4793 35 35.0266 34.55 35.0266 34C35.0266 33.45 35.4793 33 36.0325 33H53.1328C53.686 33 54.1387 33.45 54.1387 34C54.1387 34.55 53.686 35 53.1328 35ZM53.1328 29H50.1151C49.5619 29 49.1092 28.55 49.1092 28C49.1092 27.45 49.5619 27 50.1151 27H53.1328C53.686 27 54.1387 27.45 54.1387 28C54.1387 28.55 53.686 29 53.1328 29ZM53.847 18.71L49.8234 22.71C49.6222 22.9 49.3707 23 49.1092 23C48.8477 23 48.5962 22.9 48.395 22.71C48.0027 22.32 48.0027 21.68 48.395 21.29L51.7145 18L48.395 14.71C48.0027 14.32 48.0027 13.68 48.395 13.29C48.7873 12.9 49.4311 12.9 49.8234 13.29L53.847 17.29C54.2393 17.68 54.2393 18.32 53.847 18.71Z" fill="white"/>
<path d="M15.5317 5.91999C15.6526 5.9698 15.7832 6.00007 15.9143 6.00007C16.045 6.00007 16.1756 5.9698 16.2965 5.91999C16.4271 5.8697 16.5278 5.79988 16.6285 5.71003C16.7189 5.60994 16.7891 5.50007 16.8397 5.37996C16.9001 5.25984 16.9202 5.12996 16.9202 5.00007C16.9202 4.8697 16.9001 4.73982 16.8397 4.6197C16.7891 4.50007 16.7189 4.38972 16.6285 4.29011C16.5278 4.19978 16.4173 4.12996 16.2965 4.07966C15.9345 3.91999 15.4816 4.00984 15.2002 4.29011C15.1093 4.38972 15.0391 4.50007 14.9885 4.6197C14.9384 4.73982 14.9084 4.8697 14.9084 5.00007C14.9084 5.12996 14.9384 5.25984 14.9885 5.37996C15.0391 5.50007 15.1093 5.60994 15.2002 5.71003C15.3004 5.79988 15.4114 5.8697 15.5317 5.91999Z" fill="white"/>
<path d="M19.3747 5.82961C19.4351 5.86965 19.4955 5.89992 19.5554 5.91994C19.6158 5.94973 19.6762 5.96974 19.7367 5.98C19.8069 5.98976 19.8673 6.00002 19.938 6.00002C20.0687 6.00002 20.1993 5.96974 20.3202 5.91994C20.4508 5.86965 20.5515 5.79982 20.6522 5.70998C20.8329 5.52004 20.9439 5.25978 20.9439 5.00002C20.9439 4.73976 20.8329 4.48 20.6522 4.29006C20.5515 4.19973 20.4508 4.1299 20.3202 4.07961C20.1389 4.00002 19.938 3.98 19.7367 4.02004C19.6762 4.0298 19.6158 4.04982 19.5554 4.07961C19.4955 4.09963 19.4351 4.1299 19.3747 4.16994C19.3241 4.20998 19.274 4.25002 19.2239 4.29006C19.133 4.38967 19.0628 4.50002 19.0122 4.61965C18.9621 4.73976 18.9321 4.86965 18.9321 5.00002C18.9321 5.1299 18.9621 5.25978 19.0122 5.3799C19.0628 5.50002 19.133 5.60988 19.2239 5.70998C19.274 5.75002 19.3241 5.79982 19.3747 5.82961Z" fill="white"/>
<path d="M23.3983 5.82961C23.4588 5.86965 23.5192 5.89992 23.5791 5.91994C23.6395 5.94973 23.6999 5.96974 23.7603 5.98C23.8306 5.98976 23.891 6.00002 23.9617 6.00002C24.0924 6.00002 24.223 5.96974 24.3438 5.91994C24.4745 5.86965 24.5752 5.79982 24.6759 5.70998C24.8566 5.52004 24.9676 5.25978 24.9676 5.00002C24.9676 4.86965 24.9372 4.73976 24.8871 4.61965C24.8365 4.50002 24.7662 4.38967 24.6759 4.29006C24.5752 4.19973 24.4745 4.1299 24.3438 4.07961C24.1626 4.00002 23.9617 3.98 23.7603 4.02004C23.6999 4.0298 23.6395 4.04982 23.5791 4.07961C23.5192 4.09963 23.4588 4.1299 23.3983 4.16994C23.3478 4.20998 23.2977 4.25002 23.2476 4.29006C23.1567 4.38967 23.0865 4.50002 23.0359 4.61965C22.9858 4.73976 22.9558 4.86965 22.9558 5.00002C22.9558 5.1299 22.9858 5.25978 23.0359 5.3799C23.0865 5.50002 23.1567 5.60988 23.2476 5.70998C23.2977 5.75002 23.3478 5.79982 23.3983 5.82961Z" fill="white"/>
</svg>
